<svg xmlns="http://www.w3.org/2000/svg" xmlns:xlink="http://www.w3.org/1999/xlink" width="400" zoomAndPan="magnify" viewBox="0 0 300 284.250005" height="379" preserveAspectRatio="xMidYMid meet" version="1.0"><defs><clipPath id="21eb0b532f"><path d="M 0.394531 0 L 299.605469 0 L 299.605469 283.503906 L 0.394531 283.503906 Z M 0.394531 0 " clip-rule="nonzero"/></clipPath></defs><g clip-path="url(#21eb0b532f)"><path fill="#165732" d="M 276.90625 0.0234375 L 136.179688 0.0234375 C 123.730469 0.0234375 113.601562 10.152344 113.601562 22.601562 L 113.601562 72.152344 L 77.988281 72.152344 C 86.488281 65.460938 92.160156 53.546875 92.160156 39.984375 C 92.160156 20.867188 80.675781 8.992188 62.1875 8.992188 C 43.699219 8.992188 32.214844 20.867188 32.214844 39.984375 C 32.214844 53.546875 37.886719 65.460938 46.390625 72.152344 L 34.597656 72.152344 C 18.382812 72.152344 0.832031 82.738281 0.746094 99.839844 L 0.453125 157.609375 C 0.417969 164.757812 3.25 171.558594 8.425781 176.761719 C 12.949219 181.304688 18.96875 184.234375 25.359375 185.085938 L 25.359375 278.59375 C 25.359375 281.257812 27.519531 283.417969 30.183594 283.417969 C 32.84375 283.417969 35.003906 281.257812 35.003906 278.59375 L 35.003906 99.832031 C 35.003906 97.167969 32.84375 95.011719 30.183594 95.011719 C 27.519531 95.011719 25.359375 97.167969 25.359375 99.832031 L 25.359375 175.316406 C 21.539062 174.558594 17.988281 172.695312 15.265625 169.960938 C 11.914062 166.589844 10.078125 162.21875 10.101562 157.660156 L 10.390625 99.890625 C 10.449219 88.085938 24.484375 81.796875 34.59375 81.796875 L 138.433594 81.796875 C 139.511719 81.796875 140.554688 81.4375 141.40625 80.777344 L 165.316406 62.089844 C 167.273438 60.5625 170.105469 60.910156 171.632812 62.863281 C 173.15625 64.820312 172.808594 67.648438 170.855469 69.179688 L 145 89.382812 C 144.890625 89.46875 144.785156 89.554688 144.683594 89.652344 C 143.84375 90.433594 142.75 90.863281 141.601562 90.863281 L 107.738281 90.863281 C 106.300781 90.863281 104.9375 91.503906 104.019531 92.613281 L 90.605469 108.839844 C 89.890625 109.703125 89.5 110.785156 89.5 111.902344 L 89.230469 278.585938 C 89.226562 281.25 91.382812 283.414062 94.042969 283.417969 C 94.046875 283.417969 94.050781 283.417969 94.050781 283.417969 C 96.710938 283.417969 98.871094 281.265625 98.875 278.601562 L 99.140625 113.652344 L 110.007812 100.507812 L 113.601562 100.507812 L 113.601562 129.222656 C 113.601562 141.671875 123.730469 151.796875 136.179688 151.796875 L 276.90625 151.796875 C 289.355469 151.796875 299.484375 141.671875 299.484375 129.222656 L 299.484375 22.601562 C 299.484375 10.152344 289.355469 0.0234375 276.90625 0.0234375 Z M 41.863281 39.984375 C 41.863281 21.410156 54.597656 18.636719 62.1875 18.636719 C 69.78125 18.636719 82.515625 21.410156 82.515625 39.984375 C 82.515625 55.550781 73.398438 68.214844 62.1875 68.214844 C 50.980469 68.214844 41.863281 55.550781 41.863281 39.984375 Z M 289.839844 129.21875 C 289.839844 136.351562 284.039062 142.152344 276.90625 142.152344 L 136.179688 142.152344 C 129.050781 142.152344 123.25 136.351562 123.25 129.21875 L 123.25 100.507812 L 141.601562 100.507812 C 145.117188 100.507812 148.476562 99.21875 151.085938 96.867188 L 176.792969 76.777344 C 182.9375 71.976562 184.035156 63.074219 179.234375 56.925781 C 174.433594 50.78125 165.527344 49.6875 159.378906 54.488281 L 136.773438 72.152344 L 123.25 72.152344 L 123.25 22.601562 C 123.25 15.472656 129.050781 9.671875 136.179688 9.671875 L 276.90625 9.671875 C 284.039062 9.671875 289.839844 15.472656 289.839844 22.601562 Z M 66.03125 185.414062 L 66.03125 278.59375 C 66.03125 281.257812 63.871094 283.417969 61.210938 283.417969 C 58.546875 283.417969 56.386719 281.257812 56.386719 278.59375 L 56.386719 185.414062 C 56.386719 182.75 58.546875 180.589844 61.210938 180.589844 C 63.871094 180.589844 66.03125 182.75 66.03125 185.414062 Z M 280.976562 49.734375 L 276.105469 47.859375 C 275.320312 45.28125 274.285156 42.792969 273.019531 40.414062 L 275.140625 35.640625 C 275.949219 33.816406 275.550781 31.683594 274.140625 30.269531 L 265.878906 22.007812 C 264.46875 20.597656 262.335938 20.203125 260.511719 21.011719 L 255.734375 23.132812 C 253.355469 21.863281 250.867188 20.832031 248.292969 20.046875 L 246.417969 15.175781 C 245.703125 13.3125 243.914062 12.082031 241.917969 12.082031 L 230.230469 12.082031 C 228.238281 12.082031 226.449219 13.3125 225.730469 15.175781 L 223.855469 20.046875 C 221.28125 20.832031 218.792969 21.867188 216.414062 23.132812 L 211.636719 21.011719 C 209.8125 20.203125 207.679688 20.597656 206.269531 22.007812 L 198.007812 30.269531 C 196.59375 31.683594 196.199219 33.816406 197.007812 35.640625 L 199.128906 40.414062 C 197.863281 42.792969 196.832031 45.28125 196.046875 47.855469 L 191.171875 49.734375 C 189.308594 50.449219 188.082031 52.238281 188.082031 54.234375 L 188.082031 65.917969 C 188.082031 66.515625 188.203125 67.085938 188.40625 67.625 L 185.039062 69.066406 C 183.265625 69.828125 182.117188 71.570312 182.117188 73.5 L 182.117188 99.96875 C 182.117188 109.921875 185.679688 119.625 192.148438 127.292969 C 198.597656 134.941406 207.53125 140.09375 217.300781 141.796875 C 217.574219 141.84375 217.851562 141.867188 218.128906 141.867188 C 218.402344 141.867188 218.679688 141.84375 218.957031 141.796875 C 228.722656 140.09375 237.65625 134.941406 244.105469 127.292969 C 250.578125 119.625 254.140625 109.921875 254.140625 99.96875 L 254.140625 97.824219 C 254.675781 97.566406 255.210938 97.300781 255.738281 97.019531 L 260.511719 99.144531 C 261.140625 99.421875 261.808594 99.558594 262.46875 99.558594 C 263.722656 99.558594 264.957031 99.070312 265.878906 98.144531 L 274.140625 89.882812 C 275.554688 88.472656 275.949219 86.335938 275.140625 84.515625 L 273.019531 79.738281 C 274.285156 77.359375 275.316406 74.871094 276.101562 72.296875 L 280.976562 70.421875 C 282.839844 69.703125 284.066406 67.914062 284.066406 65.917969 L 284.066406 54.234375 C 284.066406 52.238281 282.839844 50.449219 280.976562 49.734375 Z M 244.492188 99.96875 C 244.492188 115.414062 233.214844 129.089844 218.125 132.136719 C 203.039062 129.089844 191.761719 115.414062 191.761719 99.96875 L 191.761719 76.679688 L 215.121094 66.667969 C 215.128906 66.664062 215.136719 66.660156 215.144531 66.660156 L 218.125 65.378906 L 244.492188 76.679688 Z M 251.617188 69.273438 C 251.484375 69.203125 251.355469 69.125 251.214844 69.066406 L 220.027344 55.699219 C 219.582031 55.507812 219.113281 55.390625 218.640625 55.339844 C 220.726562 47.667969 227.75 42.007812 236.074219 42.007812 C 246.035156 42.007812 254.140625 50.113281 254.140625 60.074219 C 254.140625 63.351562 253.246094 66.523438 251.617188 69.273438 Z M 274.421875 62.605469 L 270.359375 64.171875 C 268.875 64.742188 267.765625 66.007812 267.398438 67.554688 C 266.609375 70.867188 265.300781 74.023438 263.511719 76.933594 C 262.675781 78.285156 262.5625 79.964844 263.210938 81.417969 L 264.980469 85.402344 L 261.398438 88.980469 L 257.417969 87.210938 C 256.375 86.746094 255.210938 86.683594 254.140625 86.988281 L 254.140625 81.078125 C 260.21875 75.839844 263.789062 68.171875 263.789062 60.074219 C 263.789062 44.792969 251.355469 32.359375 236.074219 32.359375 C 221.132812 32.359375 208.921875 44.246094 208.382812 59.058594 L 198.980469 63.089844 L 197.726562 62.605469 L 197.726562 57.546875 L 201.789062 55.980469 C 203.273438 55.410156 204.378906 54.144531 204.75 52.597656 C 205.535156 49.28125 206.84375 46.128906 208.636719 43.21875 C 209.46875 41.863281 209.582031 40.1875 208.9375 38.734375 L 207.167969 34.75 L 210.746094 31.171875 L 214.730469 32.941406 C 216.183594 33.585938 217.863281 33.472656 219.21875 32.640625 C 222.125 30.847656 225.28125 29.539062 228.59375 28.75 C 230.140625 28.382812 231.40625 27.277344 231.976562 25.792969 L 233.542969 21.730469 L 238.605469 21.730469 L 240.167969 25.792969 C 240.738281 27.277344 242.003906 28.382812 243.550781 28.75 C 246.863281 29.539062 250.019531 30.847656 252.929688 32.640625 C 254.28125 33.472656 255.960938 33.585938 257.414062 32.941406 L 261.398438 31.171875 L 264.980469 34.75 L 263.210938 38.730469 C 262.5625 40.183594 262.675781 41.863281 263.511719 43.21875 C 265.300781 46.125 266.609375 49.28125 267.398438 52.597656 C 267.769531 54.144531 268.875 55.410156 270.359375 55.980469 L 274.421875 57.546875 Z M 215.542969 100.082031 L 231.015625 86.042969 C 232.988281 84.25 236.039062 84.398438 237.828125 86.371094 C 239.617188 88.34375 239.472656 91.394531 237.5 93.183594 L 218.625 110.3125 C 217.703125 111.148438 216.542969 111.566406 215.382812 111.566406 C 214.148438 111.566406 212.910156 111.089844 211.972656 110.152344 L 204.203125 102.382812 C 202.316406 100.496094 202.316406 97.445312 204.203125 95.558594 C 206.085938 93.675781 209.136719 93.675781 211.023438 95.558594 Z M 280.496094 216.820312 C 283.578125 213.390625 285.457031 208.863281 285.457031 203.902344 C 285.457031 193.238281 276.78125 184.5625 266.117188 184.5625 C 255.453125 184.5625 246.777344 193.238281 246.777344 203.902344 C 246.777344 208.863281 248.65625 213.390625 251.738281 216.820312 C 245.835938 219.609375 240.875 224.074219 237.480469 229.644531 C 234.082031 224.074219 229.121094 219.609375 223.21875 216.820312 C 226.300781 213.390625 228.179688 208.863281 228.179688 203.902344 C 228.179688 193.238281 219.503906 184.5625 208.839844 184.5625 C 198.175781 184.5625 189.503906 193.238281 189.503906 203.902344 C 189.503906 208.863281 191.382812 213.390625 194.460938 216.820312 C 188.5625 219.609375 183.597656 224.074219 180.203125 229.644531 C 176.808594 224.074219 171.84375 219.609375 165.945312 216.820312 C 169.027344 213.390625 170.90625 208.863281 170.90625 203.902344 C 170.90625 193.238281 162.230469 184.5625 151.566406 184.5625 C 140.902344 184.5625 132.226562 193.238281 132.226562 203.902344 C 132.226562 208.863281 134.105469 213.390625 137.1875 216.820312 C 126.9375 221.667969 119.503906 231.5625 118.226562 243.527344 C 118.078125 244.886719 118.519531 246.246094 119.433594 247.265625 C 120.347656 248.28125 121.652344 248.863281 123.019531 248.863281 L 180.109375 248.863281 C 180.140625 248.863281 180.167969 248.859375 180.195312 248.855469 C 180.230469 248.859375 180.261719 248.863281 180.296875 248.863281 L 237.386719 248.863281 C 237.414062 248.863281 237.445312 248.859375 237.472656 248.855469 C 237.507812 248.859375 237.539062 248.863281 237.570312 248.863281 L 294.660156 248.863281 C 296.03125 248.863281 297.335938 248.28125 298.25 247.261719 C 299.164062 246.246094 299.601562 244.886719 299.457031 243.527344 C 298.175781 231.5625 290.742188 221.667969 280.496094 216.820312 Z M 141.871094 203.902344 C 141.871094 198.558594 146.21875 194.210938 151.566406 194.210938 C 156.910156 194.210938 161.257812 198.558594 161.257812 203.902344 C 161.257812 209.246094 156.914062 213.589844 151.574219 213.59375 C 151.570312 213.59375 151.566406 213.59375 151.566406 213.59375 C 151.5625 213.59375 151.558594 213.59375 151.558594 213.59375 C 146.214844 213.589844 141.871094 209.246094 141.871094 203.902344 Z M 129.011719 239.214844 C 132.28125 229.824219 141.1875 223.246094 151.550781 223.242188 C 151.554688 223.242188 151.558594 223.242188 151.566406 223.242188 C 151.570312 223.242188 151.574219 223.242188 151.578125 223.242188 C 161.941406 223.246094 170.847656 229.820312 174.117188 239.214844 Z M 199.148438 203.902344 C 199.148438 198.558594 203.496094 194.210938 208.839844 194.210938 C 214.1875 194.210938 218.535156 198.558594 218.535156 203.902344 C 218.535156 209.246094 214.191406 213.589844 208.847656 213.59375 C 208.847656 213.59375 208.84375 213.59375 208.839844 213.59375 C 208.835938 213.59375 208.835938 213.59375 208.832031 213.59375 C 203.492188 213.589844 199.148438 209.246094 199.148438 203.902344 Z M 186.285156 239.214844 C 189.558594 229.820312 198.464844 223.246094 208.828125 223.242188 C 208.832031 223.242188 208.835938 223.242188 208.839844 223.242188 C 208.84375 223.242188 208.851562 223.242188 208.855469 223.242188 C 219.21875 223.246094 228.125 229.820312 231.394531 239.214844 Z M 256.425781 203.902344 C 256.425781 198.558594 260.773438 194.210938 266.117188 194.210938 C 271.460938 194.210938 275.808594 198.558594 275.808594 203.902344 C 275.808594 209.246094 271.464844 213.589844 266.125 213.59375 C 266.121094 213.59375 266.121094 213.59375 266.117188 213.59375 C 266.113281 213.59375 266.109375 213.59375 266.109375 213.59375 C 260.769531 213.589844 256.425781 209.246094 256.425781 203.902344 Z M 243.5625 239.214844 C 246.832031 229.820312 255.738281 223.246094 266.105469 223.242188 C 266.109375 223.242188 266.113281 223.242188 266.117188 223.242188 C 266.121094 223.242188 266.125 223.242188 266.128906 223.242188 C 276.492188 223.246094 285.398438 229.820312 288.671875 239.214844 Z M 243.5625 239.214844 " fill-opacity="1" fill-rule="nonzero"/><path fill="#165732" d="M 276.90625 0.0234375 L 136.179688 0.0234375 C 123.730469 0.0234375 113.601562 10.152344 113.601562 22.601562 L 113.601562 72.152344 L 77.988281 72.152344 C 86.488281 65.460938 92.160156 53.546875 92.160156 39.984375 C 92.160156 20.867188 80.675781 8.992188 62.1875 8.992188 C 43.699219 8.992188 32.214844 20.867188 32.214844 39.984375 C 32.214844 53.546875 37.886719 65.460938 46.390625 72.152344 L 34.597656 72.152344 C 18.382812 72.152344 0.832031 82.738281 0.746094 99.839844 L 0.453125 157.609375 C 0.417969 164.757812 3.25 171.558594 8.425781 176.761719 C 12.949219 181.304688 18.96875 184.234375 25.359375 185.085938 L 25.359375 278.59375 C 25.359375 281.257812 27.519531 283.417969 30.183594 283.417969 C 32.84375 283.417969 35.003906 281.257812 35.003906 278.59375 L 35.003906 99.832031 C 35.003906 97.167969 32.84375 95.011719 30.183594 95.011719 C 27.519531 95.011719 25.359375 97.167969 25.359375 99.832031 L 25.359375 175.316406 C 21.539062 174.558594 17.988281 172.695312 15.265625 169.960938 C 11.914062 166.589844 10.078125 162.21875 10.101562 157.660156 L 10.390625 99.890625 C 10.449219 88.085938 24.484375 81.796875 34.59375 81.796875 L 138.433594 81.796875 C 139.511719 81.796875 140.554688 81.4375 141.40625 80.777344 L 165.316406 62.089844 C 167.273438 60.5625 170.105469 60.910156 171.632812 62.863281 C 173.15625 64.820312 172.808594 67.648438 170.855469 69.179688 L 145 89.382812 C 144.890625 89.46875 144.785156 89.554688 144.683594 89.652344 C 143.84375 90.433594 142.75 90.863281 141.601562 90.863281 L 107.738281 90.863281 C 106.300781 90.863281 104.9375 91.503906 104.019531 92.613281 L 90.605469 108.839844 C 89.890625 109.703125 89.5 110.785156 89.5 111.902344 L 89.230469 278.585938 C 89.226562 281.25 91.382812 283.414062 94.042969 283.417969 C 94.046875 283.417969 94.050781 283.417969 94.050781 283.417969 C 96.710938 283.417969 98.871094 281.265625 98.875 278.601562 L 99.140625 113.652344 L 110.007812 100.507812 L 113.601562 100.507812 L 113.601562 129.222656 C 113.601562 141.671875 123.730469 151.796875 136.179688 151.796875 L 276.90625 151.796875 C 289.355469 151.796875 299.484375 141.671875 299.484375 129.222656 L 299.484375 22.601562 C 299.484375 10.152344 289.355469 0.0234375 276.90625 0.0234375 Z M 41.863281 39.984375 C 41.863281 21.410156 54.597656 18.636719 62.1875 18.636719 C 69.78125 18.636719 82.515625 21.410156 82.515625 39.984375 C 82.515625 55.550781 73.398438 68.214844 62.1875 68.214844 C 50.980469 68.214844 41.863281 55.550781 41.863281 39.984375 Z M 289.839844 129.21875 C 289.839844 136.351562 284.039062 142.152344 276.90625 142.152344 L 136.179688 142.152344 C 129.050781 142.152344 123.25 136.351562 123.25 129.21875 L 123.25 100.507812 L 141.601562 100.507812 C 145.117188 100.507812 148.476562 99.21875 151.085938 96.867188 L 176.792969 76.777344 C 182.9375 71.976562 184.035156 63.074219 179.234375 56.925781 C 174.433594 50.78125 165.527344 49.6875 159.378906 54.488281 L 136.773438 72.152344 L 123.25 72.152344 L 123.25 22.601562 C 123.25 15.472656 129.050781 9.671875 136.179688 9.671875 L 276.90625 9.671875 C 284.039062 9.671875 289.839844 15.472656 289.839844 22.601562 Z M 66.03125 185.414062 L 66.03125 278.59375 C 66.03125 281.257812 63.871094 283.417969 61.210938 283.417969 C 58.546875 283.417969 56.386719 281.257812 56.386719 278.59375 L 56.386719 185.414062 C 56.386719 182.75 58.546875 180.589844 61.210938 180.589844 C 63.871094 180.589844 66.03125 182.75 66.03125 185.414062 Z M 280.976562 49.734375 L 276.105469 47.859375 C 275.320312 45.28125 274.285156 42.792969 273.019531 40.414062 L 275.140625 35.640625 C 275.949219 33.816406 275.550781 31.683594 274.140625 30.269531 L 265.878906 22.007812 C 264.46875 20.597656 262.335938 20.203125 260.511719 21.011719 L 255.734375 23.132812 C 253.355469 21.863281 250.867188 20.832031 248.292969 20.046875 L 246.417969 15.175781 C 245.703125 13.3125 243.914062 12.082031 241.917969 12.082031 L 230.230469 12.082031 C 228.238281 12.082031 226.449219 13.3125 225.730469 15.175781 L 223.855469 20.046875 C 221.28125 20.832031 218.792969 21.867188 216.414062 23.132812 L 211.636719 21.011719 C 209.8125 20.203125 207.679688 20.597656 206.269531 22.007812 L 198.007812 30.269531 C 196.59375 31.683594 196.199219 33.816406 197.007812 35.640625 L 199.128906 40.414062 C 197.863281 42.792969 196.832031 45.28125 196.046875 47.855469 L 191.171875 49.734375 C 189.308594 50.449219 188.082031 52.238281 188.082031 54.234375 L 188.082031 65.917969 C 188.082031 66.515625 188.203125 67.085938 188.40625 67.625 L 185.039062 69.066406 C 183.265625 69.828125 182.117188 71.570312 182.117188 73.5 L 182.117188 99.96875 C 182.117188 109.921875 185.679688 119.625 192.148438 127.292969 C 198.597656 134.941406 207.53125 140.09375 217.300781 141.796875 C 217.574219 141.84375 217.851562 141.867188 218.128906 141.867188 C 218.402344 141.867188 218.679688 141.84375 218.957031 141.796875 C 228.722656 140.09375 237.65625 134.941406 244.105469 127.292969 C 250.578125 119.625 254.140625 109.921875 254.140625 99.96875 L 254.140625 97.824219 C 254.675781 97.566406 255.210938 97.300781 255.738281 97.019531 L 260.511719 99.144531 C 261.140625 99.421875 261.808594 99.558594 262.46875 99.558594 C 263.722656 99.558594 264.957031 99.070312 265.878906 98.144531 L 274.140625 89.882812 C 275.554688 88.472656 275.949219 86.335938 275.140625 84.515625 L 273.019531 79.738281 C 274.285156 77.359375 275.316406 74.871094 276.101562 72.296875 L 280.976562 70.421875 C 282.839844 69.703125 284.066406 67.914062 284.066406 65.917969 L 284.066406 54.234375 C 284.066406 52.238281 282.839844 50.449219 280.976562 49.734375 Z M 244.492188 99.96875 C 244.492188 115.414062 233.214844 129.089844 218.125 132.136719 C 203.039062 129.089844 191.761719 115.414062 191.761719 99.96875 L 191.761719 76.679688 L 215.121094 66.667969 C 215.128906 66.664062 215.136719 66.660156 215.144531 66.660156 L 218.125 65.378906 L 244.492188 76.679688 Z M 251.617188 69.273438 C 251.484375 69.203125 251.355469 69.125 251.214844 69.066406 L 220.027344 55.699219 C 219.582031 55.507812 219.113281 55.390625 218.640625 55.339844 C 220.726562 47.667969 227.75 42.007812 236.074219 42.007812 C 246.035156 42.007812 254.140625 50.113281 254.140625 60.074219 C 254.140625 63.351562 253.246094 66.523438 251.617188 69.273438 Z M 274.421875 62.605469 L 270.359375 64.171875 C 268.875 64.742188 267.765625 66.007812 267.398438 67.554688 C 266.609375 70.867188 265.300781 74.023438 263.511719 76.933594 C 262.675781 78.285156 262.5625 79.964844 263.210938 81.417969 L 264.980469 85.402344 L 261.398438 88.980469 L 257.417969 87.210938 C 256.375 86.746094 255.210938 86.683594 254.140625 86.988281 L 254.140625 81.078125 C 260.21875 75.839844 263.789062 68.171875 263.789062 60.074219 C 263.789062 44.792969 251.355469 32.359375 236.074219 32.359375 C 221.132812 32.359375 208.921875 44.246094 208.382812 59.058594 L 198.980469 63.089844 L 197.726562 62.605469 L 197.726562 57.546875 L 201.789062 55.980469 C 203.273438 55.410156 204.378906 54.144531 204.75 52.597656 C 205.535156 49.28125 206.84375 46.128906 208.636719 43.21875 C 209.46875 41.863281 209.582031 40.1875 208.9375 38.734375 L 207.167969 34.75 L 210.746094 31.171875 L 214.730469 32.941406 C 216.183594 33.585938 217.863281 33.472656 219.21875 32.640625 C 222.125 30.847656 225.28125 29.539062 228.59375 28.75 C 230.140625 28.382812 231.40625 27.277344 231.976562 25.792969 L 233.542969 21.730469 L 238.605469 21.730469 L 240.167969 25.792969 C 240.738281 27.277344 242.003906 28.382812 243.550781 28.75 C 246.863281 29.539062 250.019531 30.847656 252.929688 32.640625 C 254.28125 33.472656 255.960938 33.585938 257.414062 32.941406 L 261.398438 31.171875 L 264.980469 34.75 L 263.210938 38.730469 C 262.5625 40.183594 262.675781 41.863281 263.511719 43.21875 C 265.300781 46.125 266.609375 49.28125 267.398438 52.597656 C 267.769531 54.144531 268.875 55.410156 270.359375 55.980469 L 274.421875 57.546875 Z M 215.542969 100.082031 L 231.015625 86.042969 C 232.988281 84.25 236.039062 84.398438 237.828125 86.371094 C 239.617188 88.34375 239.472656 91.394531 237.5 93.183594 L 218.625 110.3125 C 217.703125 111.148438 216.542969 111.566406 215.382812 111.566406 C 214.148438 111.566406 212.910156 111.089844 211.972656 110.152344 L 204.203125 102.382812 C 202.316406 100.496094 202.316406 97.445312 204.203125 95.558594 C 206.085938 93.675781 209.136719 93.675781 211.023438 95.558594 Z M 280.496094 216.820312 C 283.578125 213.390625 285.457031 208.863281 285.457031 203.902344 C 285.457031 193.238281 276.78125 184.5625 266.117188 184.5625 C 255.453125 184.5625 246.777344 193.238281 246.777344 203.902344 C 246.777344 208.863281 248.65625 213.390625 251.738281 216.820312 C 245.835938 219.609375 240.875 224.074219 237.480469 229.644531 C 234.082031 224.074219 229.121094 219.609375 223.21875 216.820312 C 226.300781 213.390625 228.179688 208.863281 228.179688 203.902344 C 228.179688 193.238281 219.503906 184.5625 208.839844 184.5625 C 198.175781 184.5625 189.503906 193.238281 189.503906 203.902344 C 189.503906 208.863281 191.382812 213.390625 194.460938 216.820312 C 188.5625 219.609375 183.597656 224.074219 180.203125 229.644531 C 176.808594 224.074219 171.84375 219.609375 165.945312 216.820312 C 169.027344 213.390625 170.90625 208.863281 170.90625 203.902344 C 170.90625 193.238281 162.230469 184.5625 151.566406 184.5625 C 140.902344 184.5625 132.226562 193.238281 132.226562 203.902344 C 132.226562 208.863281 134.105469 213.390625 137.1875 216.820312 C 126.9375 221.667969 119.503906 231.5625 118.226562 243.527344 C 118.078125 244.886719 118.519531 246.246094 119.433594 247.265625 C 120.347656 248.28125 121.652344 248.863281 123.019531 248.863281 L 180.109375 248.863281 C 180.140625 248.863281 180.167969 248.859375 180.195312 248.855469 C 180.230469 248.859375 180.261719 248.863281 180.296875 248.863281 L 237.386719 248.863281 C 237.414062 248.863281 237.445312 248.859375 237.472656 248.855469 C 237.507812 248.859375 237.539062 248.863281 237.570312 248.863281 L 294.660156 248.863281 C 296.03125 248.863281 297.335938 248.28125 298.25 247.261719 C 299.164062 246.246094 299.601562 244.886719 299.457031 243.527344 C 298.175781 231.5625 290.742188 221.667969 280.496094 216.820312 Z M 141.871094 203.902344 C 141.871094 198.558594 146.21875 194.210938 151.566406 194.210938 C 156.910156 194.210938 161.257812 198.558594 161.257812 203.902344 C 161.257812 209.246094 156.914062 213.589844 151.574219 213.59375 C 151.570312 213.59375 151.566406 213.59375 151.566406 213.59375 C 151.5625 213.59375 151.558594 213.59375 151.558594 213.59375 C 146.214844 213.589844 141.871094 209.246094 141.871094 203.902344 Z M 129.011719 239.214844 C 132.28125 229.824219 141.1875 223.246094 151.550781 223.242188 C 151.554688 223.242188 151.558594 223.242188 151.566406 223.242188 C 151.570312 223.242188 151.574219 223.242188 151.578125 223.242188 C 161.941406 223.246094 170.847656 229.820312 174.117188 239.214844 Z M 199.148438 203.902344 C 199.148438 198.558594 203.496094 194.210938 208.839844 194.210938 C 214.1875 194.210938 218.535156 198.558594 218.535156 203.902344 C 218.535156 209.246094 214.191406 213.589844 208.847656 213.59375 C 208.847656 213.59375 208.84375 213.59375 208.839844 213.59375 C 208.835938 213.59375 208.835938 213.59375 208.832031 213.59375 C 203.492188 213.589844 199.148438 209.246094 199.148438 203.902344 Z M 186.285156 239.214844 C 189.558594 229.820312 198.464844 223.246094 208.828125 223.242188 C 208.832031 223.242188 208.835938 223.242188 208.839844 223.242188 C 208.84375 223.242188 208.851562 223.242188 208.855469 223.242188 C 219.21875 223.246094 228.125 229.820312 231.394531 239.214844 Z M 256.425781 203.902344 C 256.425781 198.558594 260.773438 194.210938 266.117188 194.210938 C 271.460938 194.210938 275.808594 198.558594 275.808594 203.902344 C 275.808594 209.246094 271.464844 213.589844 266.125 213.59375 C 266.121094 213.59375 266.121094 213.59375 266.117188 213.59375 C 266.113281 213.59375 266.109375 213.59375 266.109375 213.59375 C 260.769531 213.589844 256.425781 209.246094 256.425781 203.902344 Z M 243.5625 239.214844 C 246.832031 229.820312 255.738281 223.246094 266.105469 223.242188 C 266.109375 223.242188 266.113281 223.242188 266.117188 223.242188 C 266.121094 223.242188 266.125 223.242188 266.128906 223.242188 C 276.492188 223.246094 285.398438 229.820312 288.671875 239.214844 Z M 243.5625 239.214844 " fill-opacity="1" fill-rule="nonzero"/></g></svg>