<svg xmlns="http://www.w3.org/2000/svg" xmlns:xlink="http://www.w3.org/1999/xlink" width="400" zoomAndPan="magnify" viewBox="0 0 300 303.749993" height="405" preserveAspectRatio="xMidYMid meet" version="1.0"><defs><clipPath id="387781afee"><path d="M 112 154 L 299.875 154 L 299.875 276 L 112 276 Z M 112 154 " clip-rule="nonzero"/></clipPath><clipPath id="eb11244bc2"><path d="M 0.125 30 L 31 30 L 31 212 L 0.125 212 Z M 0.125 30 " clip-rule="nonzero"/></clipPath><clipPath id="47030005ad"><path d="M 0.125 198 L 85 198 L 85 283 L 0.125 283 Z M 0.125 198 " clip-rule="nonzero"/></clipPath><clipPath id="7e27d4920c"><path d="M 112 155 L 299.875 155 L 299.875 277 L 112 277 Z M 112 155 " clip-rule="nonzero"/></clipPath><clipPath id="292f3cf05b"><path d="M 0.125 31 L 31 31 L 31 213 L 0.125 213 Z M 0.125 31 " clip-rule="nonzero"/></clipPath><clipPath id="0fffc3a1ba"><path d="M 0.125 199 L 85 199 L 85 284 L 0.125 284 Z M 0.125 199 " clip-rule="nonzero"/></clipPath></defs><path fill="#165732" d="M 45.519531 82.914062 C 43.648438 81.039062 40.605469 81.273438 38.96875 82.914062 L 28.671875 93.441406 L 26.800781 91.570312 C 24.925781 89.699219 22.121094 89.699219 20.246094 91.570312 C 18.375 93.441406 18.375 96.25 20.246094 98.121094 L 25.394531 103.503906 C 25.394531 103.503906 25.628906 103.738281 25.863281 103.738281 C 25.863281 103.738281 26.097656 103.972656 26.097656 103.972656 C 26.332031 103.972656 26.332031 104.207031 26.566406 104.207031 C 26.566406 104.207031 26.800781 104.441406 26.800781 104.441406 C 27.035156 104.441406 27.265625 104.675781 27.265625 104.675781 C 27.265625 104.675781 27.5 104.675781 27.5 104.675781 C 27.734375 104.675781 28.203125 104.675781 28.4375 104.675781 C 28.671875 104.675781 29.140625 104.675781 29.375 104.675781 C 29.375 104.675781 29.605469 104.675781 29.605469 104.675781 C 29.839844 104.675781 30.074219 104.675781 30.074219 104.441406 C 30.308594 104.441406 30.308594 104.207031 30.542969 104.207031 C 30.777344 104.207031 30.777344 103.972656 31.011719 103.972656 C 31.246094 103.972656 31.246094 103.738281 31.480469 103.738281 C 31.480469 103.738281 31.714844 103.503906 31.714844 103.503906 L 45.285156 89.464844 C 47.390625 87.59375 47.390625 84.550781 45.519531 82.914062 Z M 45.519531 82.914062 " fill-opacity="1" fill-rule="nonzero"/><path fill="#165732" d="M 149.882812 86.1875 L 65.644531 86.1875 C 63.070312 86.1875 60.964844 88.292969 60.964844 90.867188 C 60.964844 93.441406 63.070312 95.546875 65.644531 95.546875 L 149.882812 95.546875 C 152.457031 95.546875 154.5625 93.441406 154.5625 90.867188 C 154.5625 88.292969 152.457031 86.1875 149.882812 86.1875 Z M 149.882812 86.1875 " fill-opacity="1" fill-rule="nonzero"/><path fill="#165732" d="M 45.519531 115.671875 C 43.648438 113.800781 40.605469 114.035156 38.96875 115.671875 L 28.671875 126.203125 L 26.800781 124.332031 C 24.925781 122.457031 22.121094 122.457031 20.246094 124.332031 C 18.375 126.203125 18.375 129.011719 20.246094 130.882812 L 25.394531 136.265625 C 25.394531 136.265625 25.628906 136.5 25.863281 136.5 C 25.863281 136.5 26.097656 136.734375 26.097656 136.734375 C 26.332031 136.734375 26.332031 136.964844 26.566406 136.964844 C 26.566406 136.964844 26.800781 137.199219 26.800781 137.199219 C 27.035156 137.199219 27.265625 137.433594 27.265625 137.433594 C 27.265625 137.433594 27.5 137.433594 27.5 137.433594 C 27.734375 137.433594 28.203125 137.433594 28.4375 137.433594 C 28.671875 137.433594 29.140625 137.433594 29.375 137.433594 C 29.375 137.433594 29.605469 137.433594 29.605469 137.433594 C 29.839844 137.433594 30.074219 137.433594 30.074219 137.199219 C 30.308594 137.199219 30.308594 136.964844 30.542969 136.964844 C 30.777344 136.964844 30.777344 136.734375 31.011719 136.734375 C 31.246094 136.734375 31.246094 136.5 31.480469 136.5 C 31.480469 136.5 31.714844 136.265625 31.714844 136.265625 L 45.285156 122.226562 C 47.390625 120.351562 47.390625 117.3125 45.519531 115.671875 Z M 45.519531 115.671875 " fill-opacity="1" fill-rule="nonzero"/><path fill="#165732" d="M 154.5625 123.628906 C 154.5625 121.054688 152.457031 118.949219 149.882812 118.949219 L 65.644531 118.949219 C 63.070312 118.949219 60.964844 121.054688 60.964844 123.628906 C 60.964844 126.203125 63.070312 128.308594 65.644531 128.308594 L 149.882812 128.308594 C 152.457031 128.308594 154.5625 126.203125 154.5625 123.628906 Z M 154.5625 123.628906 " fill-opacity="1" fill-rule="nonzero"/><path fill="#165732" d="M 38.96875 148.433594 L 28.671875 158.960938 L 26.800781 157.089844 C 24.925781 155.21875 22.121094 155.21875 20.246094 157.089844 C 18.375 158.960938 18.375 161.769531 20.246094 163.640625 L 25.394531 169.023438 C 25.394531 169.023438 25.628906 169.257812 25.863281 169.257812 C 25.863281 169.257812 26.097656 169.492188 26.097656 169.492188 C 26.332031 169.492188 26.332031 169.726562 26.566406 169.726562 C 26.566406 169.726562 26.800781 169.960938 26.800781 169.960938 C 27.035156 169.960938 27.265625 170.195312 27.265625 170.195312 C 27.265625 170.195312 27.5 170.195312 27.5 170.195312 C 27.734375 170.195312 28.203125 170.195312 28.4375 170.195312 C 28.671875 170.195312 29.140625 170.195312 29.375 170.195312 C 29.375 170.195312 29.605469 170.195312 29.605469 170.195312 C 29.839844 170.195312 30.074219 170.195312 30.074219 169.960938 C 30.308594 169.960938 30.308594 169.726562 30.542969 169.726562 C 30.777344 169.726562 30.777344 169.492188 31.011719 169.492188 C 31.246094 169.492188 31.246094 169.257812 31.480469 169.257812 C 31.480469 169.257812 31.714844 169.023438 31.714844 169.023438 L 45.285156 154.984375 C 47.15625 153.113281 46.921875 150.070312 45.285156 148.433594 C 43.648438 146.5625 40.605469 146.5625 38.96875 148.433594 Z M 38.96875 148.433594 " fill-opacity="1" fill-rule="nonzero"/><path fill="#165732" d="M 129.523438 58.109375 C 134.203125 58.109375 138.183594 54.363281 138.183594 49.449219 L 138.183594 26.988281 C 138.183594 22.308594 134.4375 18.328125 129.523438 18.328125 L 108.699219 18.328125 C 107.761719 13.179688 105.421875 8.96875 101.679688 5.925781 C 98.402344 3.117188 92.320312 0.546875 82.726562 2.652344 C 75.472656 4.523438 70.792969 11.308594 69.386719 18.328125 L 48.5625 18.328125 C 43.882812 18.328125 39.902344 22.074219 39.902344 26.988281 L 39.902344 49.449219 C 39.902344 54.128906 43.648438 58.109375 48.5625 58.109375 Z M 49.261719 27.6875 L 73.597656 27.6875 C 76.171875 27.6875 78.277344 25.347656 78.277344 22.773438 C 78.277344 18.328125 81.085938 12.714844 85.066406 11.777344 C 89.746094 10.839844 93.488281 11.308594 96.0625 13.179688 C 98.402344 15.519531 99.808594 18.796875 99.808594 23.007812 C 99.808594 25.582031 101.914062 27.6875 104.488281 27.6875 L 128.824219 27.6875 L 128.824219 48.75 L 49.261719 48.75 Z M 49.261719 27.6875 " fill-opacity="1" fill-rule="nonzero"/><path fill="#165732" d="M 104.488281 301.46875 L 204.640625 301.46875 C 207.679688 301.46875 210.488281 300.0625 212.125 297.488281 C 213.296875 295.382812 213.53125 292.808594 212.359375 290.703125 L 207.914062 282.28125 C 206.511719 279.707031 203.703125 278.066406 200.425781 278.066406 L 109.167969 278.066406 C 105.890625 278.066406 103.082031 279.707031 101.679688 282.28125 L 97.234375 290.703125 C 96.0625 292.808594 96.0625 295.382812 97.46875 297.488281 C 98.636719 300.0625 101.445312 301.46875 104.488281 301.46875 Z M 109.167969 287.429688 L 199.957031 287.429688 L 202.53125 292.109375 L 106.828125 292.109375 Z M 109.167969 287.429688 " fill-opacity="1" fill-rule="nonzero"/><path fill="#165732" d="M 192.003906 264.027344 L 112.441406 264.027344 C 109.867188 264.027344 107.761719 266.132812 107.761719 268.707031 C 107.761719 271.28125 109.867188 273.386719 112.441406 273.386719 L 192.003906 273.386719 C 194.578125 273.386719 196.683594 271.28125 196.683594 268.707031 C 196.683594 266.132812 194.578125 264.027344 192.003906 264.027344 Z M 192.003906 264.027344 " fill-opacity="1" fill-rule="nonzero"/><g clip-path="url(#387781afee)"><path fill="#165732" d="M 287.476562 241.097656 L 190.132812 207.167969 C 191.535156 202.488281 192.9375 197.804688 193.640625 194.53125 C 193.875 194.53125 194.34375 194.53125 194.578125 194.53125 C 199.023438 194.53125 203.234375 191.722656 205.105469 187.277344 C 206.277344 184.234375 206.511719 180.957031 205.339844 178.152344 C 204.171875 175.34375 202.300781 173.238281 199.492188 172.300781 L 158.539062 154.984375 C 152.925781 152.644531 146.371094 155.453125 143.800781 161.300781 C 142.628906 164.34375 142.394531 167.621094 143.566406 170.429688 C 144.03125 171.832031 144.96875 173.003906 145.90625 174.171875 C 142.628906 179.085938 137.011719 187.976562 132.800781 197.574219 C 129.757812 204.828125 126.484375 216.527344 124.84375 223.078125 C 120.164062 222.609375 115.25 225.417969 113.144531 230.097656 C 111.976562 233.140625 111.742188 236.417969 112.910156 239.222656 C 114.082031 242.03125 115.953125 244.136719 118.761719 245.074219 L 159.710938 262.390625 C 161.113281 262.859375 162.519531 263.328125 163.921875 263.328125 C 168.367188 263.328125 172.582031 260.519531 174.453125 256.074219 C 175.621094 253.03125 175.855469 249.753906 174.6875 246.945312 C 174.21875 245.542969 173.28125 244.371094 172.347656 243.4375 C 174.453125 240.394531 177.261719 235.714844 180.070312 230.566406 L 273.199219 273.855469 C 275.773438 275.027344 278.582031 275.726562 281.390625 275.726562 C 283.496094 275.726562 285.601562 275.261719 287.707031 274.558594 C 292.386719 272.921875 295.898438 269.410156 298.003906 264.964844 C 299.875 260.519531 299.875 255.371094 298.003906 250.925781 C 296.132812 246.246094 292.386719 242.734375 287.476562 241.097656 Z M 152.457031 165.046875 C 152.925781 164.109375 153.859375 163.410156 154.5625 163.410156 C 154.796875 163.410156 154.796875 163.410156 155.03125 163.410156 L 195.980469 180.722656 C 196.214844 180.957031 196.449219 181.191406 196.683594 181.425781 C 196.917969 181.894531 196.917969 182.597656 196.683594 183.296875 C 196.214844 184.46875 194.8125 185.171875 194.109375 184.703125 L 153.160156 167.386719 C 152.925781 167.152344 152.691406 166.917969 152.457031 166.683594 C 152.222656 166.449219 152.222656 165.75 152.457031 165.046875 Z M 141.691406 201.316406 C 145.671875 191.957031 151.285156 183.0625 154.328125 178.617188 L 184.75 191.488281 C 183.109375 197.574219 179.835938 209.273438 177.027344 216.292969 C 173.515625 224.480469 167.433594 234.078125 164.390625 238.992188 L 133.972656 226.121094 C 135.609375 220.035156 138.652344 208.101562 141.691406 201.316406 Z M 166.027344 252.328125 C 165.5625 253.5 164.15625 254.199219 163.453125 253.730469 L 122.503906 236.417969 C 122.269531 236.183594 122.035156 235.949219 121.804688 235.714844 C 121.570312 235.246094 121.570312 234.542969 121.804688 233.84375 C 122.269531 232.90625 123.207031 232.203125 123.910156 232.203125 C 124.144531 232.203125 124.144531 232.203125 124.378906 232.203125 L 165.328125 249.519531 C 165.5625 249.753906 165.796875 249.988281 166.027344 250.222656 C 166.496094 251.160156 166.496094 251.859375 166.027344 252.328125 Z M 289.582031 261.21875 C 288.644531 263.328125 287.007812 264.964844 284.667969 265.898438 C 282.328125 266.835938 279.753906 266.601562 277.414062 265.433594 L 184.515625 222.140625 C 184.984375 221.441406 185.21875 220.738281 185.449219 219.800781 C 185.917969 218.632812 186.386719 217.226562 187.089844 216.058594 L 284.433594 249.753906 C 286.773438 250.691406 288.644531 252.328125 289.582031 254.433594 C 290.515625 256.773438 290.515625 259.113281 289.582031 261.21875 Z M 289.582031 261.21875 " fill-opacity="1" fill-rule="nonzero"/></g><g clip-path="url(#eb11244bc2)"><path fill="#165732" d="M 9.484375 200.847656 L 9.484375 39.390625 L 30.542969 39.390625 L 30.542969 30.027344 L 9.484375 30.027344 C 4.335938 30.027344 0.125 34.242188 0.125 39.390625 L 0.125 211.144531 C 2.699219 207.402344 5.972656 203.890625 9.484375 200.847656 Z M 9.484375 200.847656 " fill-opacity="1" fill-rule="nonzero"/></g><g clip-path="url(#47030005ad)"><path fill="#165732" d="M 42.242188 282.75 C 65.410156 282.75 84.363281 263.792969 84.363281 240.628906 C 84.363281 217.460938 65.410156 198.507812 42.242188 198.507812 C 19.078125 198.507812 0.125 217.460938 0.125 240.628906 C 0.125 263.792969 19.078125 282.75 42.242188 282.75 Z M 42.242188 207.867188 C 60.261719 207.867188 75.003906 222.609375 75.003906 240.628906 C 75.003906 258.644531 60.261719 273.386719 42.242188 273.386719 C 24.226562 273.386719 9.484375 258.644531 9.484375 240.628906 C 9.484375 222.609375 24.226562 207.867188 42.242188 207.867188 Z M 42.242188 207.867188 " fill-opacity="1" fill-rule="nonzero"/></g><path fill="#165732" d="M 42.242188 247.648438 C 44.816406 247.648438 46.921875 245.542969 46.921875 242.96875 L 46.921875 224.25 C 46.921875 221.675781 44.816406 219.570312 42.242188 219.570312 C 39.667969 219.570312 37.5625 221.675781 37.5625 224.25 L 37.5625 242.96875 C 37.5625 245.542969 39.667969 247.648438 42.242188 247.648438 Z M 42.242188 247.648438 " fill-opacity="1" fill-rule="nonzero"/><path fill="#165732" d="M 46.921875 257.007812 C 46.921875 257.316406 46.894531 257.621094 46.832031 257.921875 C 46.773438 258.222656 46.683594 258.515625 46.566406 258.800781 C 46.449219 259.082031 46.304688 259.351562 46.132812 259.609375 C 45.964844 259.863281 45.769531 260.101562 45.550781 260.316406 C 45.335938 260.535156 45.097656 260.730469 44.84375 260.898438 C 44.585938 261.070312 44.316406 261.214844 44.035156 261.332031 C 43.75 261.449219 43.457031 261.539062 43.15625 261.597656 C 42.855469 261.660156 42.550781 261.6875 42.242188 261.6875 C 41.9375 261.6875 41.632812 261.660156 41.332031 261.597656 C 41.027344 261.539062 40.734375 261.449219 40.453125 261.332031 C 40.167969 261.214844 39.898438 261.070312 39.644531 260.898438 C 39.386719 260.730469 39.152344 260.535156 38.933594 260.316406 C 38.714844 260.101562 38.523438 259.863281 38.351562 259.609375 C 38.179688 259.351562 38.035156 259.082031 37.917969 258.800781 C 37.800781 258.515625 37.714844 258.222656 37.652344 257.921875 C 37.59375 257.621094 37.5625 257.316406 37.5625 257.007812 C 37.5625 256.699219 37.59375 256.398438 37.652344 256.09375 C 37.714844 255.792969 37.800781 255.5 37.917969 255.21875 C 38.035156 254.933594 38.179688 254.664062 38.351562 254.40625 C 38.523438 254.152344 38.714844 253.917969 38.933594 253.699219 C 39.152344 253.480469 39.386719 253.289062 39.644531 253.117188 C 39.898438 252.945312 40.167969 252.800781 40.453125 252.683594 C 40.734375 252.566406 41.027344 252.476562 41.332031 252.417969 C 41.632812 252.359375 41.9375 252.328125 42.242188 252.328125 C 42.550781 252.328125 42.855469 252.359375 43.15625 252.417969 C 43.457031 252.476562 43.75 252.566406 44.035156 252.683594 C 44.316406 252.800781 44.585938 252.945312 44.84375 253.117188 C 45.097656 253.289062 45.335938 253.480469 45.550781 253.699219 C 45.769531 253.917969 45.964844 254.152344 46.132812 254.40625 C 46.304688 254.664062 46.449219 254.933594 46.566406 255.21875 C 46.683594 255.5 46.773438 255.792969 46.832031 256.09375 C 46.894531 256.398438 46.921875 256.699219 46.921875 257.007812 Z M 46.921875 257.007812 " fill-opacity="1" fill-rule="nonzero"/><path fill="#165732" d="M 168.601562 148.902344 L 177.964844 152.878906 L 177.964844 39.390625 C 177.964844 34.242188 173.75 30.027344 168.601562 30.027344 L 147.542969 30.027344 L 147.542969 39.390625 L 168.601562 39.390625 Z M 168.601562 148.902344 " fill-opacity="1" fill-rule="nonzero"/><path fill="#165732" d="M 105.890625 245.308594 C 105.421875 244.371094 104.957031 243.671875 104.488281 242.734375 C 103.550781 240.628906 103.082031 238.289062 103.082031 235.949219 L 93.488281 235.949219 C 93.722656 237.585938 93.722656 238.992188 93.722656 240.628906 C 93.722656 242.265625 93.722656 243.671875 93.488281 245.308594 Z M 105.890625 245.308594 " fill-opacity="1" fill-rule="nonzero"/><path fill="#165732" d="M 135.375 157.558594 C 136.3125 155.453125 137.714844 153.347656 139.117188 151.707031 L 65.644531 151.707031 C 63.070312 151.707031 60.964844 153.816406 60.964844 156.386719 C 60.964844 158.960938 63.070312 161.070312 65.644531 161.070312 L 134.203125 161.070312 C 134.4375 159.898438 134.90625 158.730469 135.375 157.558594 Z M 135.375 157.558594 " fill-opacity="1" fill-rule="nonzero"/><path fill="#165732" d="M 45.519531 84.046875 C 43.648438 82.171875 40.605469 82.40625 38.96875 84.046875 L 28.671875 94.574219 L 26.800781 92.703125 C 24.925781 90.832031 22.121094 90.832031 20.246094 92.703125 C 18.375 94.574219 18.375 97.382812 20.246094 99.253906 L 25.394531 104.636719 C 25.394531 104.636719 25.628906 104.871094 25.863281 104.871094 C 25.863281 104.871094 26.097656 105.105469 26.097656 105.105469 C 26.332031 105.105469 26.332031 105.339844 26.566406 105.339844 C 26.566406 105.339844 26.800781 105.574219 26.800781 105.574219 C 27.035156 105.574219 27.265625 105.808594 27.265625 105.808594 C 27.265625 105.808594 27.5 105.808594 27.5 105.808594 C 27.734375 105.808594 28.203125 105.808594 28.4375 105.808594 C 28.671875 105.808594 29.140625 105.808594 29.375 105.808594 C 29.375 105.808594 29.605469 105.808594 29.605469 105.808594 C 29.839844 105.808594 30.074219 105.808594 30.074219 105.574219 C 30.308594 105.574219 30.308594 105.339844 30.542969 105.339844 C 30.777344 105.339844 30.777344 105.105469 31.011719 105.105469 C 31.246094 105.105469 31.246094 104.871094 31.480469 104.871094 C 31.480469 104.871094 31.714844 104.636719 31.714844 104.636719 L 45.285156 90.597656 C 47.390625 88.726562 47.390625 85.683594 45.519531 84.046875 Z M 45.519531 84.046875 " fill-opacity="1" fill-rule="nonzero"/><path fill="#165732" d="M 149.882812 87.320312 L 65.644531 87.320312 C 63.070312 87.320312 60.964844 89.425781 60.964844 92 C 60.964844 94.574219 63.070312 96.679688 65.644531 96.679688 L 149.882812 96.679688 C 152.457031 96.679688 154.5625 94.574219 154.5625 92 C 154.5625 89.425781 152.457031 87.320312 149.882812 87.320312 Z M 149.882812 87.320312 " fill-opacity="1" fill-rule="nonzero"/><path fill="#165732" d="M 45.519531 116.804688 C 43.648438 114.933594 40.605469 115.167969 38.96875 116.804688 L 28.671875 127.335938 L 26.800781 125.464844 C 24.925781 123.589844 22.121094 123.589844 20.246094 125.464844 C 18.375 127.335938 18.375 130.144531 20.246094 132.015625 L 25.394531 137.398438 C 25.394531 137.398438 25.628906 137.632812 25.863281 137.632812 C 25.863281 137.632812 26.097656 137.863281 26.097656 137.863281 C 26.332031 137.863281 26.332031 138.097656 26.566406 138.097656 C 26.566406 138.097656 26.800781 138.332031 26.800781 138.332031 C 27.035156 138.332031 27.265625 138.566406 27.265625 138.566406 C 27.265625 138.566406 27.5 138.566406 27.5 138.566406 C 27.734375 138.566406 28.203125 138.566406 28.4375 138.566406 C 28.671875 138.566406 29.140625 138.566406 29.375 138.566406 C 29.375 138.566406 29.605469 138.566406 29.605469 138.566406 C 29.839844 138.566406 30.074219 138.566406 30.074219 138.332031 C 30.308594 138.332031 30.308594 138.097656 30.542969 138.097656 C 30.777344 138.097656 30.777344 137.863281 31.011719 137.863281 C 31.246094 137.863281 31.246094 137.632812 31.480469 137.632812 C 31.480469 137.632812 31.714844 137.398438 31.714844 137.398438 L 45.285156 123.355469 C 47.390625 121.484375 47.390625 118.441406 45.519531 116.804688 Z M 45.519531 116.804688 " fill-opacity="1" fill-rule="nonzero"/><path fill="#165732" d="M 154.5625 124.761719 C 154.5625 122.1875 152.457031 120.082031 149.882812 120.082031 L 65.644531 120.082031 C 63.070312 120.082031 60.964844 122.1875 60.964844 124.761719 C 60.964844 127.335938 63.070312 129.441406 65.644531 129.441406 L 149.882812 129.441406 C 152.457031 129.441406 154.5625 127.335938 154.5625 124.761719 Z M 154.5625 124.761719 " fill-opacity="1" fill-rule="nonzero"/><path fill="#165732" d="M 38.96875 149.566406 L 28.671875 160.09375 L 26.800781 158.222656 C 24.925781 156.351562 22.121094 156.351562 20.246094 158.222656 C 18.375 160.09375 18.375 162.902344 20.246094 164.773438 L 25.394531 170.15625 C 25.394531 170.15625 25.628906 170.390625 25.863281 170.390625 C 25.863281 170.390625 26.097656 170.625 26.097656 170.625 C 26.332031 170.625 26.332031 170.859375 26.566406 170.859375 C 26.566406 170.859375 26.800781 171.09375 26.800781 171.09375 C 27.035156 171.09375 27.265625 171.328125 27.265625 171.328125 C 27.265625 171.328125 27.5 171.328125 27.5 171.328125 C 27.734375 171.328125 28.203125 171.328125 28.4375 171.328125 C 28.671875 171.328125 29.140625 171.328125 29.375 171.328125 C 29.375 171.328125 29.605469 171.328125 29.605469 171.328125 C 29.839844 171.328125 30.074219 171.328125 30.074219 171.09375 C 30.308594 171.09375 30.308594 170.859375 30.542969 170.859375 C 30.777344 170.859375 30.777344 170.625 31.011719 170.625 C 31.246094 170.625 31.246094 170.390625 31.480469 170.390625 C 31.480469 170.390625 31.714844 170.15625 31.714844 170.15625 L 45.285156 156.117188 C 47.15625 154.246094 46.921875 151.203125 45.285156 149.566406 C 43.648438 147.691406 40.605469 147.691406 38.96875 149.566406 Z M 38.96875 149.566406 " fill-opacity="1" fill-rule="nonzero"/><path fill="#165732" d="M 129.523438 59.242188 C 134.203125 59.242188 138.183594 55.496094 138.183594 50.582031 L 138.183594 28.121094 C 138.183594 23.4375 134.4375 19.460938 129.523438 19.460938 L 108.699219 19.460938 C 107.761719 14.3125 105.421875 10.101562 101.679688 7.058594 C 98.402344 4.25 92.320312 1.675781 82.726562 3.785156 C 75.472656 5.65625 70.792969 12.441406 69.386719 19.460938 L 48.5625 19.460938 C 43.882812 19.460938 39.902344 23.207031 39.902344 28.121094 L 39.902344 50.582031 C 39.902344 55.261719 43.648438 59.242188 48.5625 59.242188 Z M 49.261719 28.820312 L 73.597656 28.820312 C 76.171875 28.820312 78.277344 26.480469 78.277344 23.90625 C 78.277344 19.460938 81.085938 13.84375 85.066406 12.910156 C 89.746094 11.972656 93.488281 12.441406 96.0625 14.3125 C 98.402344 16.652344 99.808594 19.929688 99.808594 24.140625 C 99.808594 26.714844 101.914062 28.820312 104.488281 28.820312 L 128.824219 28.820312 L 128.824219 49.882812 L 49.261719 49.882812 Z M 49.261719 28.820312 " fill-opacity="1" fill-rule="nonzero"/><path fill="#165732" d="M 104.488281 302.601562 L 204.640625 302.601562 C 207.679688 302.601562 210.488281 301.195312 212.125 298.621094 C 213.296875 296.515625 213.53125 293.941406 212.359375 291.835938 L 207.914062 283.414062 C 206.511719 280.839844 203.703125 279.199219 200.425781 279.199219 L 109.167969 279.199219 C 105.890625 279.199219 103.082031 280.839844 101.679688 283.414062 L 97.234375 291.835938 C 96.0625 293.941406 96.0625 296.515625 97.46875 298.621094 C 98.636719 301.195312 101.445312 302.601562 104.488281 302.601562 Z M 109.167969 288.5625 L 199.957031 288.5625 L 202.53125 293.242188 L 106.828125 293.242188 Z M 109.167969 288.5625 " fill-opacity="1" fill-rule="nonzero"/><path fill="#165732" d="M 192.003906 265.160156 L 112.441406 265.160156 C 109.867188 265.160156 107.761719 267.265625 107.761719 269.839844 C 107.761719 272.414062 109.867188 274.519531 112.441406 274.519531 L 192.003906 274.519531 C 194.578125 274.519531 196.683594 272.414062 196.683594 269.839844 C 196.683594 267.265625 194.578125 265.160156 192.003906 265.160156 Z M 192.003906 265.160156 " fill-opacity="1" fill-rule="nonzero"/><g clip-path="url(#7e27d4920c)"><path fill="#165732" d="M 287.476562 242.230469 L 190.132812 208.300781 C 191.535156 203.617188 192.9375 198.9375 193.640625 195.664062 C 193.875 195.664062 194.34375 195.664062 194.578125 195.664062 C 199.023438 195.664062 203.234375 192.855469 205.105469 188.410156 C 206.277344 185.367188 206.511719 182.089844 205.339844 179.28125 C 204.171875 176.476562 202.300781 174.367188 199.492188 173.433594 L 158.539062 156.117188 C 152.925781 153.777344 146.371094 156.585938 143.800781 162.433594 C 142.628906 165.476562 142.394531 168.753906 143.566406 171.5625 C 144.03125 172.964844 144.96875 174.136719 145.90625 175.304688 C 142.628906 180.21875 137.011719 189.109375 132.800781 198.703125 C 129.757812 205.957031 126.484375 217.660156 124.84375 224.210938 C 120.164062 223.742188 115.25 226.550781 113.144531 231.230469 C 111.976562 234.273438 111.742188 237.550781 112.910156 240.355469 C 114.082031 243.164062 115.953125 245.269531 118.761719 246.207031 L 159.710938 263.523438 C 161.113281 263.992188 162.519531 264.457031 163.921875 264.457031 C 168.367188 264.457031 172.582031 261.652344 174.453125 257.203125 C 175.621094 254.164062 175.855469 250.886719 174.6875 248.078125 C 174.21875 246.675781 173.28125 245.503906 172.347656 244.570312 C 174.453125 241.527344 177.261719 236.847656 180.070312 231.699219 L 273.199219 274.988281 C 275.773438 276.160156 278.582031 276.859375 281.390625 276.859375 C 283.496094 276.859375 285.601562 276.394531 287.707031 275.691406 C 292.386719 274.054688 295.898438 270.542969 298.003906 266.097656 C 299.875 261.652344 299.875 256.503906 298.003906 252.058594 C 296.132812 247.375 292.386719 243.867188 287.476562 242.230469 Z M 152.457031 166.179688 C 152.925781 165.242188 153.859375 164.542969 154.5625 164.542969 C 154.796875 164.542969 154.796875 164.542969 155.03125 164.542969 L 195.980469 181.855469 C 196.214844 182.089844 196.449219 182.324219 196.683594 182.558594 C 196.917969 183.027344 196.917969 183.730469 196.683594 184.429688 C 196.214844 185.601562 194.8125 186.304688 194.109375 185.835938 L 153.160156 168.519531 C 152.925781 168.285156 152.691406 168.050781 152.457031 167.816406 C 152.222656 167.582031 152.222656 166.882812 152.457031 166.179688 Z M 141.691406 202.449219 C 145.671875 193.089844 151.285156 184.195312 154.328125 179.75 L 184.75 192.621094 C 183.109375 198.703125 179.835938 210.40625 177.027344 217.425781 C 173.515625 225.613281 167.433594 235.207031 164.390625 240.121094 L 133.972656 227.253906 C 135.609375 221.167969 138.652344 209.234375 141.691406 202.449219 Z M 166.027344 253.460938 C 165.5625 254.628906 164.15625 255.332031 163.453125 254.863281 L 122.503906 237.550781 C 122.269531 237.316406 122.035156 237.082031 121.804688 236.847656 C 121.570312 236.378906 121.570312 235.675781 121.804688 234.976562 C 122.269531 234.039062 123.207031 233.335938 123.910156 233.335938 C 124.144531 233.335938 124.144531 233.335938 124.378906 233.335938 L 165.328125 250.652344 C 165.5625 250.886719 165.796875 251.121094 166.027344 251.355469 C 166.496094 252.289062 166.496094 252.992188 166.027344 253.460938 Z M 289.582031 262.351562 C 288.644531 264.457031 287.007812 266.097656 284.667969 267.03125 C 282.328125 267.96875 279.753906 267.734375 277.414062 266.566406 L 184.515625 223.273438 C 184.984375 222.574219 185.21875 221.871094 185.449219 220.933594 C 185.917969 219.765625 186.386719 218.359375 187.089844 217.191406 L 284.433594 250.886719 C 286.773438 251.824219 288.644531 253.460938 289.582031 255.566406 C 290.515625 257.90625 290.515625 260.246094 289.582031 262.351562 Z M 289.582031 262.351562 " fill-opacity="1" fill-rule="nonzero"/></g><g clip-path="url(#292f3cf05b)"><path fill="#165732" d="M 9.484375 201.980469 L 9.484375 40.519531 L 30.542969 40.519531 L 30.542969 31.160156 L 9.484375 31.160156 C 4.335938 31.160156 0.125 35.375 0.125 40.519531 L 0.125 212.277344 C 2.699219 208.53125 5.972656 205.023438 9.484375 201.980469 Z M 9.484375 201.980469 " fill-opacity="1" fill-rule="nonzero"/></g><g clip-path="url(#0fffc3a1ba)"><path fill="#165732" d="M 42.242188 283.878906 C 65.410156 283.878906 84.363281 264.925781 84.363281 241.761719 C 84.363281 218.59375 65.410156 199.640625 42.242188 199.640625 C 19.078125 199.640625 0.125 218.59375 0.125 241.761719 C 0.125 264.925781 19.078125 283.878906 42.242188 283.878906 Z M 42.242188 209 C 60.261719 209 75.003906 223.742188 75.003906 241.761719 C 75.003906 259.777344 60.261719 274.519531 42.242188 274.519531 C 24.226562 274.519531 9.484375 259.777344 9.484375 241.761719 C 9.484375 223.742188 24.226562 209 42.242188 209 Z M 42.242188 209 " fill-opacity="1" fill-rule="nonzero"/></g><path fill="#165732" d="M 42.242188 248.78125 C 44.816406 248.78125 46.921875 246.675781 46.921875 244.101562 L 46.921875 225.382812 C 46.921875 222.808594 44.816406 220.699219 42.242188 220.699219 C 39.667969 220.699219 37.5625 222.808594 37.5625 225.382812 L 37.5625 244.101562 C 37.5625 246.675781 39.667969 248.78125 42.242188 248.78125 Z M 42.242188 248.78125 " fill-opacity="1" fill-rule="nonzero"/><path fill="#165732" d="M 46.921875 258.140625 C 46.921875 258.449219 46.894531 258.753906 46.832031 259.054688 C 46.773438 259.355469 46.683594 259.648438 46.566406 259.933594 C 46.449219 260.214844 46.304688 260.484375 46.132812 260.742188 C 45.964844 260.996094 45.769531 261.234375 45.550781 261.449219 C 45.335938 261.667969 45.097656 261.863281 44.84375 262.03125 C 44.585938 262.203125 44.316406 262.347656 44.035156 262.464844 C 43.75 262.582031 43.457031 262.671875 43.15625 262.730469 C 42.855469 262.789062 42.550781 262.820312 42.242188 262.820312 C 41.9375 262.820312 41.632812 262.789062 41.332031 262.730469 C 41.027344 262.671875 40.734375 262.582031 40.453125 262.464844 C 40.167969 262.347656 39.898438 262.203125 39.644531 262.03125 C 39.386719 261.863281 39.152344 261.667969 38.933594 261.449219 C 38.714844 261.234375 38.523438 260.996094 38.351562 260.742188 C 38.179688 260.484375 38.035156 260.214844 37.917969 259.933594 C 37.800781 259.648438 37.714844 259.355469 37.652344 259.054688 C 37.59375 258.753906 37.5625 258.449219 37.5625 258.140625 C 37.5625 257.832031 37.59375 257.527344 37.652344 257.226562 C 37.714844 256.925781 37.800781 256.632812 37.917969 256.351562 C 38.035156 256.066406 38.179688 255.796875 38.351562 255.539062 C 38.523438 255.285156 38.714844 255.050781 38.933594 254.832031 C 39.152344 254.613281 39.386719 254.421875 39.644531 254.25 C 39.898438 254.078125 40.167969 253.933594 40.453125 253.816406 C 40.734375 253.699219 41.027344 253.609375 41.332031 253.550781 C 41.632812 253.492188 41.9375 253.460938 42.242188 253.460938 C 42.550781 253.460938 42.855469 253.492188 43.15625 253.550781 C 43.457031 253.609375 43.75 253.699219 44.035156 253.816406 C 44.316406 253.933594 44.585938 254.078125 44.84375 254.25 C 45.097656 254.421875 45.335938 254.613281 45.550781 254.832031 C 45.769531 255.050781 45.964844 255.285156 46.132812 255.539062 C 46.304688 255.796875 46.449219 256.066406 46.566406 256.351562 C 46.683594 256.632812 46.773438 256.925781 46.832031 257.226562 C 46.894531 257.527344 46.921875 257.832031 46.921875 258.140625 Z M 46.921875 258.140625 " fill-opacity="1" fill-rule="nonzero"/><path fill="#165732" d="M 168.601562 150.03125 L 177.964844 154.011719 L 177.964844 40.519531 C 177.964844 35.375 173.75 31.160156 168.601562 31.160156 L 147.542969 31.160156 L 147.542969 40.519531 L 168.601562 40.519531 Z M 168.601562 150.03125 " fill-opacity="1" fill-rule="nonzero"/><path fill="#165732" d="M 105.890625 246.441406 C 105.421875 245.503906 104.957031 244.804688 104.488281 243.867188 C 103.550781 241.761719 103.082031 239.421875 103.082031 237.082031 L 93.488281 237.082031 C 93.722656 238.71875 93.722656 240.121094 93.722656 241.761719 C 93.722656 243.398438 93.722656 244.804688 93.488281 246.441406 Z M 105.890625 246.441406 " fill-opacity="1" fill-rule="nonzero"/><path fill="#165732" d="M 135.375 158.691406 C 136.3125 156.585938 137.714844 154.480469 139.117188 152.839844 L 65.644531 152.839844 C 63.070312 152.839844 60.964844 154.945312 60.964844 157.519531 C 60.964844 160.09375 63.070312 162.199219 65.644531 162.199219 L 134.203125 162.199219 C 134.4375 161.03125 134.90625 159.859375 135.375 158.691406 Z M 135.375 158.691406 " fill-opacity="1" fill-rule="nonzero"/></svg>