<svg xmlns="http://www.w3.org/2000/svg" xmlns:xlink="http://www.w3.org/1999/xlink" width="400" zoomAndPan="magnify" viewBox="0 0 300 296.999993" height="396" preserveAspectRatio="xMidYMid meet" version="1.0"><path fill="#165732" d="M 24.492188 210.625 C 26.980469 210.625 32.292969 210.425781 34.660156 210.863281 C 35.421875 209.464844 36.910156 208.496094 38.621094 208.496094 L 54.128906 208.496094 C 56.476562 208.496094 58.402344 210.3125 58.601562 212.609375 L 70.195312 206.066406 C 75.597656 203.011719 81.691406 202.707031 87.339844 205.214844 L 94.8125 208.503906 L 107.445312 208.503906 L 100.6875 194.757812 C 98.179688 189.667969 100.269531 183.503906 105.34375 180.996094 L 112.777344 177.339844 L 86.6875 177.339844 C 84.199219 177.339844 82.195312 175.320312 82.195312 172.851562 C 82.195312 170.363281 84.199219 168.359375 86.6875 168.359375 L 130.972656 168.359375 L 147.222656 160.34375 C 140.898438 155.984375 140.039062 144.546875 141.097656 137.183594 L 124.242188 137.183594 C 121.769531 137.183594 119.753906 135.183594 119.753906 132.714844 C 119.753906 130.226562 121.773438 128.226562 124.242188 128.226562 L 143.496094 128.226562 C 145.53125 123.152344 148.789062 118.386719 153.566406 114.769531 C 153.675781 114.699219 153.765625 114.621094 153.875 114.570312 C 158.671875 111.519531 163.546875 108.496094 168.472656 105.515625 L 168.472656 92.699219 C 159.929688 99.0625 149.328125 102.828125 137.839844 102.828125 C 129.296875 102.828125 121.242188 100.738281 114.136719 97.050781 L 96.484375 97.050781 C 94.011719 97.050781 91.996094 95.046875 91.996094 92.558594 C 91.996094 90.085938 94.015625 88.070312 96.484375 88.070312 L 101.796875 88.070312 C 94.761719 81.125 89.726562 72.214844 87.578125 62.199219 L 30.082031 62.199219 C 27.027344 62.199219 24.5 64.707031 24.5 67.757812 L 24.5 210.625 Z M 44.585938 217.480469 C 45.082031 218.226562 45.5 218.988281 45.855469 219.808594 L 49.980469 217.480469 Z M 47.128906 229.355469 L 47.292969 275.460938 L 60.164062 277.441406 L 60.164062 277.460938 L 113.546875 287.023438 C 116.089844 287.480469 118.492188 287.390625 120.800781 286.171875 L 194.375 247.773438 C 200.589844 244.535156 203.628906 240.847656 204.195312 237.734375 C 204.519531 235.824219 203.796875 234.277344 202.160156 233.265625 C 199.488281 231.609375 194.851562 231.394531 188.742188 233.722656 L 128.675781 256.71875 C 127.695312 257.105469 126.585938 257.117188 125.53125 256.738281 L 81.664062 240.558594 C 79.335938 239.703125 78.136719 237.140625 78.988281 234.8125 C 79.84375 232.484375 82.425781 231.285156 84.753906 232.136719 L 126.660156 247.585938 C 131.824219 244.316406 133.332031 240.460938 128.949219 235.625 C 126.789062 233.226562 123.441406 230.957031 119.042969 229.027344 L 83.734375 213.410156 C 80.644531 212.042969 77.519531 212.191406 74.589844 213.847656 Z M 46.273438 284.386719 C 44.035156 290.167969 38.4375 294.148438 32.035156 294.167969 L 15.945312 294.21875 C 7.53125 294.257812 0.636719 287.402344 0.617188 278.96875 L 0.417969 226.011719 C 0.398438 217.648438 7.144531 210.792969 15.507812 210.671875 L 15.507812 67.753906 C 15.507812 59.734375 22.050781 53.207031 30.074219 53.207031 L 86.488281 53.207031 C 85.488281 24.121094 108.792969 0.03125 137.847656 0.03125 C 166.246094 0.03125 189.246094 23.050781 189.246094 51.429688 C 189.246094 63.886719 184.824219 75.28125 177.460938 84.191406 L 177.460938 100.171875 C 193.058594 91.027344 211.292969 81.007812 227.058594 73.289062 L 227.097656 73.269531 C 230.457031 71.355469 233.804688 69.523438 237.152344 67.757812 C 239.738281 66.394531 242.277344 65.085938 244.773438 63.851562 C 244.921875 59.5625 247.371094 55.558594 251.390625 53.578125 L 261.914062 48.394531 C 267.789062 45.503906 274.933594 47.921875 277.820312 53.796875 L 296.785156 92.324219 C 299.679688 98.199219 297.242188 105.34375 291.367188 108.226562 L 280.84375 113.410156 C 275.96875 115.808594 270.152344 114.570312 266.660156 110.574219 C 265.007812 112.101562 263.550781 113.828125 262.28125 115.6875 C 260.300781 118.613281 258.8125 121.921875 257.921875 125.46875 C 258.535156 130.539062 257.992188 135.050781 256.324219 139.03125 C 254.488281 143.304688 251.398438 146.8125 247.03125 149.523438 C 246.742188 149.703125 246.445312 149.851562 246.136719 149.960938 C 242.59375 151.507812 239.539062 153.140625 236.972656 154.835938 L 252.957031 187.269531 C 255.464844 192.339844 253.371094 198.503906 248.300781 201.011719 L 202.25 223.734375 C 216.285156 227.332031 218.703125 245.1875 198.523438 255.714844 L 124.949219 294.109375 C 120.746094 296.3125 116.546875 296.65625 111.96875 295.835938 L 58.84375 286.3125 L 58.824219 286.332031 Z M 31.785156 219.554688 L 15.695312 219.605469 C 12.238281 219.605469 9.371094 222.496094 9.371094 226.003906 L 9.550781 278.960938 C 9.570312 282.417969 12.460938 285.285156 15.949219 285.273438 L 32.042969 285.214844 C 35.53125 285.214844 38.367188 282.289062 38.367188 278.816406 L 38.1875 225.878906 C 38.1875 222.425781 35.3125 219.554688 31.785156 219.554688 Z M 123.773438 221.316406 C 132.484375 225.429688 141.519531 232.914062 140.410156 242.605469 L 154.976562 237.042969 L 170.703125 229.28125 C 170.902344 229.175781 171.085938 229.085938 171.285156 228.996094 L 244.335938 192.964844 C 244.972656 192.65625 245.246094 191.855469 244.921875 191.21875 L 230.003906 160.980469 C 228.277344 163.21875 227.277344 165.539062 227.019531 167.976562 C 227 168.214844 226.96875 168.433594 226.890625 168.648438 C 223.710938 180.71875 217.476562 191.828125 205.65625 194.484375 C 205.457031 194.523438 205.238281 194.554688 205.023438 194.574219 L 205.039062 194.59375 C 204.949219 194.59375 204.875 194.59375 204.804688 194.613281 C 203.019531 212.539062 185.3125 224.28125 168.042969 218.027344 C 161.203125 215.550781 155.296875 210.496094 151.75 203.351562 C 144.785156 189.351562 149.9375 172.050781 164.019531 165.082031 C 170.550781 161.863281 177.746094 161.519531 184.292969 163.539062 C 187.382812 164.480469 190.328125 165.976562 192.984375 167.957031 C 193.855469 161.613281 195.453125 154.066406 197.78125 145.375 L 175.238281 156.503906 C 175.058594 156.613281 174.851562 156.703125 174.652344 156.792969 L 134.253906 176.71875 C 134.074219 176.828125 133.871094 176.917969 133.671875 177.007812 L 109.292969 189.027344 C 108.660156 189.351562 108.382812 190.152344 108.691406 190.789062 Z M 126.597656 72.152344 C 124.652344 70.625 124.328125 67.808594 125.851562 65.839844 C 127.378906 63.898438 130.195312 63.570312 132.144531 65.097656 C 137.050781 68.953125 145.601562 66.226562 145.601562 61.421875 C 145.601562 51.820312 121.144531 60.804688 121.144531 41.425781 C 121.144531 34.425781 126.65625 29.117188 133.304688 27.480469 L 133.304688 24.789062 C 133.304688 22.28125 135.269531 20.296875 137.921875 20.296875 L 137.921875 20.316406 C 140.449219 20.316406 142.453125 22.390625 142.394531 24.863281 L 142.34375 27.480469 C 145.8125 28.316406 148.992188 30.136719 151.269531 32.792969 C 152.867188 34.664062 152.648438 37.480469 150.777344 39.101562 C 148.902344 40.699219 146.070312 40.480469 144.464844 38.609375 C 140.265625 33.703125 130.117188 36.082031 130.117188 41.425781 C 130.117188 51.027344 154.574219 42.039062 154.574219 61.421875 C 154.574219 68.457031 149.011719 73.789062 142.316406 75.382812 L 142.277344 78.058594 C 142.277344 80.546875 140.257812 82.546875 137.789062 82.546875 C 135.300781 82.546875 133.300781 80.546875 133.300781 78.058594 L 133.300781 75.363281 C 130.828125 74.75 128.539062 73.660156 126.597656 72.152344 Z M 137.847656 9.011719 C 114.429688 9.011719 95.433594 27.988281 95.433594 51.421875 C 95.433594 74.859375 114.429688 93.835938 137.847656 93.835938 C 161.332031 93.835938 180.277344 74.800781 180.277344 51.421875 C 180.277344 27.996094 161.28125 9.011719 137.847656 9.011719 Z M 262.238281 102.53125 L 247.472656 72.519531 C 245.363281 73.570312 243.308594 74.648438 241.308594 75.679688 C 237.980469 77.441406 234.710938 79.226562 231.507812 81.042969 C 231.363281 81.132812 231.222656 81.222656 231.054688 81.316406 C 218.4375 87.609375 206.183594 94.097656 194.332031 100.789062 C 188.078125 104.316406 181.824219 107.953125 175.550781 111.71875 C 175.382812 111.84375 175.1875 111.953125 175.007812 112.0625 C 169.605469 115.300781 164.226562 118.625 158.824219 122.042969 C 154.917969 125.0625 152.425781 129.246094 151.046875 133.625 C 150.992188 133.882812 150.917969 134.132812 150.828125 134.371094 C 149.847656 137.828125 149.519531 141.386719 149.71875 144.566406 C 149.867188 147.074219 150.589844 151.1875 152.027344 152.730469 L 170.734375 143.644531 C 170.914062 143.535156 171.121094 143.445312 171.320312 143.355469 L 204.515625 127.230469 C 208.222656 125.339844 212.058594 128.816406 210.894531 132.523438 C 203.898438 154.808594 200.570312 170.992188 201.316406 180.117188 C 201.492188 182.117188 201.949219 185.972656 204.078125 185.664062 C 207.097656 184.902344 209.734375 183.097656 211.949219 180.285156 C 214.511719 177.0625 216.566406 172.535156 218.164062 166.6875 C 218.796875 161.503906 221.292969 156.777344 225.617188 152.488281 L 228.636719 149.832031 C 232.273438 146.921875 236.890625 144.253906 242.46875 141.796875 C 245.144531 140.089844 246.996094 138 248.050781 135.523438 C 249.179688 132.867188 249.46875 129.667969 248.921875 125.890625 L 248.941406 125.890625 C 248.871094 125.382812 248.871094 124.839844 248.992188 124.308594 C 250.890625 115.730469 255.585938 108.09375 262.238281 102.53125 Z M 265.871094 56.425781 L 255.347656 61.609375 C 253.910156 62.320312 253.316406 64.097656 254 65.515625 L 272.964844 104.039062 C 273.679688 105.457031 275.453125 106.074219 276.871094 105.367188 L 287.398438 100.183594 C 288.832031 99.472656 289.429688 97.710938 288.742188 96.28125 L 269.777344 57.753906 C 269.074219 56.335938 267.289062 55.714844 265.871094 56.425781 Z M 195.992188 191.085938 C 192.335938 186.851562 192.484375 180.449219 192.316406 179.996094 C 189.660156 176.121094 185.863281 173.394531 181.664062 172.085938 C 171.84375 169.054688 161.683594 174.414062 158.574219 184.214844 C 155.304688 194.523438 160.921875 205.9375 171.101562 209.613281 C 183.734375 214.191406 196.425781 204.648438 195.992188 191.085938 Z M 177.5 205.867188 C 175.03125 205.71875 173.160156 203.617188 173.300781 201.140625 C 173.449219 198.671875 175.550781 196.78125 178.027344 196.921875 C 179.9375 197.03125 181.207031 195.226562 181.046875 194.886719 C 180.867188 194.558594 179.429688 194.945312 177.996094 195.34375 C 172.992188 196.691406 167.996094 198.050781 164.558594 191.070312 C 162.742188 187.363281 163.738281 183.125 166.449219 180.144531 C 165.339844 177.816406 166.414062 175.160156 168.667969 174.125 C 170.871094 173.105469 173.453125 174.019531 174.542969 176.148438 C 175.347656 176.097656 176.160156 176.109375 176.941406 176.21875 C 179.398438 176.542969 181.125 178.800781 180.796875 181.253906 C 180.46875 183.707031 178.214844 185.414062 175.761719 185.085938 C 173.929688 184.832031 172.402344 186.703125 172.601562 187.109375 C 172.769531 187.453125 174.21875 187.070312 175.652344 186.671875 C 180.65625 185.304688 185.652344 183.964844 189.070312 190.925781 C 190.90625 194.667969 189.890625 198.921875 187.148438 201.921875 L 187.167969 201.941406 C 188.1875 204.140625 187.257812 206.757812 185.074219 207.828125 C 182.875 208.921875 180.21875 208.027344 179.109375 205.847656 C 178.554688 205.898438 178.027344 205.898438 177.5 205.867188 Z M 38.621094 97.042969 C 36.152344 97.042969 34.132812 95.042969 34.132812 92.554688 C 34.132812 90.078125 36.152344 88.0625 38.621094 88.0625 L 74.730469 88.0625 C 77.21875 88.0625 79.21875 90.085938 79.21875 92.554688 C 79.21875 95.042969 77.21875 97.042969 74.730469 97.042969 Z M 38.621094 137.179688 C 36.152344 137.179688 34.132812 135.175781 34.132812 132.707031 C 34.132812 130.21875 36.152344 128.21875 38.621094 128.21875 L 110.140625 128.21875 C 112.628906 128.21875 114.628906 130.21875 114.628906 132.707031 C 114.628906 135.183594 112.628906 137.179688 110.140625 137.179688 Z M 71.492188 168.359375 C 73.980469 168.359375 75.980469 170.363281 75.980469 172.851562 C 75.980469 175.320312 73.980469 177.339844 71.492188 177.339844 L 38.621094 177.339844 C 36.152344 177.339844 34.132812 175.320312 34.132812 172.851562 C 34.132812 170.363281 36.152344 168.359375 38.621094 168.359375 Z M 71.492188 168.359375 " fill-opacity="1" fill-rule="nonzero"/><path fill="#165732" d="M 24.492188 210.625 C 26.980469 210.625 32.292969 210.425781 34.660156 210.863281 C 35.421875 209.464844 36.910156 208.496094 38.621094 208.496094 L 54.128906 208.496094 C 56.476562 208.496094 58.402344 210.3125 58.601562 212.609375 L 70.195312 206.066406 C 75.597656 203.011719 81.691406 202.707031 87.339844 205.214844 L 94.8125 208.503906 L 107.445312 208.503906 L 100.6875 194.757812 C 98.179688 189.667969 100.269531 183.503906 105.34375 180.996094 L 112.777344 177.339844 L 86.6875 177.339844 C 84.199219 177.339844 82.195312 175.320312 82.195312 172.851562 C 82.195312 170.363281 84.199219 168.359375 86.6875 168.359375 L 130.972656 168.359375 L 147.222656 160.34375 C 140.898438 155.984375 140.039062 144.546875 141.097656 137.183594 L 124.242188 137.183594 C 121.769531 137.183594 119.753906 135.183594 119.753906 132.714844 C 119.753906 130.226562 121.773438 128.226562 124.242188 128.226562 L 143.496094 128.226562 C 145.53125 123.152344 148.789062 118.386719 153.566406 114.769531 C 153.675781 114.699219 153.765625 114.621094 153.875 114.570312 C 158.671875 111.519531 163.546875 108.496094 168.472656 105.515625 L 168.472656 92.699219 C 159.929688 99.0625 149.328125 102.828125 137.839844 102.828125 C 129.296875 102.828125 121.242188 100.738281 114.136719 97.050781 L 96.484375 97.050781 C 94.011719 97.050781 91.996094 95.046875 91.996094 92.558594 C 91.996094 90.085938 94.015625 88.070312 96.484375 88.070312 L 101.796875 88.070312 C 94.761719 81.125 89.726562 72.214844 87.578125 62.199219 L 30.082031 62.199219 C 27.027344 62.199219 24.5 64.707031 24.5 67.757812 L 24.5 210.625 Z M 44.585938 217.480469 C 45.082031 218.226562 45.5 218.988281 45.855469 219.808594 L 49.980469 217.480469 Z M 47.128906 229.355469 L 47.292969 275.460938 L 60.164062 277.441406 L 60.164062 277.460938 L 113.546875 287.023438 C 116.089844 287.480469 118.492188 287.390625 120.800781 286.171875 L 194.375 247.773438 C 200.589844 244.535156 203.628906 240.847656 204.195312 237.734375 C 204.519531 235.824219 203.796875 234.277344 202.160156 233.265625 C 199.488281 231.609375 194.851562 231.394531 188.742188 233.722656 L 128.675781 256.71875 C 127.695312 257.105469 126.585938 257.117188 125.53125 256.738281 L 81.664062 240.558594 C 79.335938 239.703125 78.136719 237.140625 78.988281 234.8125 C 79.84375 232.484375 82.425781 231.285156 84.753906 232.136719 L 126.660156 247.585938 C 131.824219 244.316406 133.332031 240.460938 128.949219 235.625 C 126.789062 233.226562 123.441406 230.957031 119.042969 229.027344 L 83.734375 213.410156 C 80.644531 212.042969 77.519531 212.191406 74.589844 213.847656 Z M 46.273438 284.386719 C 44.035156 290.167969 38.4375 294.148438 32.035156 294.167969 L 15.945312 294.21875 C 7.53125 294.257812 0.636719 287.402344 0.617188 278.96875 L 0.417969 226.011719 C 0.398438 217.648438 7.144531 210.792969 15.507812 210.671875 L 15.507812 67.753906 C 15.507812 59.734375 22.050781 53.207031 30.074219 53.207031 L 86.488281 53.207031 C 85.488281 24.121094 108.792969 0.03125 137.847656 0.03125 C 166.246094 0.03125 189.246094 23.050781 189.246094 51.429688 C 189.246094 63.886719 184.824219 75.28125 177.460938 84.191406 L 177.460938 100.171875 C 193.058594 91.027344 211.292969 81.007812 227.058594 73.289062 L 227.097656 73.269531 C 230.457031 71.355469 233.804688 69.523438 237.152344 67.757812 C 239.738281 66.394531 242.277344 65.085938 244.773438 63.851562 C 244.921875 59.5625 247.371094 55.558594 251.390625 53.578125 L 261.914062 48.394531 C 267.789062 45.503906 274.933594 47.921875 277.820312 53.796875 L 296.785156 92.324219 C 299.679688 98.199219 297.242188 105.34375 291.367188 108.226562 L 280.84375 113.410156 C 275.96875 115.808594 270.152344 114.570312 266.660156 110.574219 C 265.007812 112.101562 263.550781 113.828125 262.28125 115.6875 C 260.300781 118.613281 258.8125 121.921875 257.921875 125.46875 C 258.535156 130.539062 257.992188 135.050781 256.324219 139.03125 C 254.488281 143.304688 251.398438 146.8125 247.03125 149.523438 C 246.742188 149.703125 246.445312 149.851562 246.136719 149.960938 C 242.59375 151.507812 239.539062 153.140625 236.972656 154.835938 L 252.957031 187.269531 C 255.464844 192.339844 253.371094 198.503906 248.300781 201.011719 L 202.25 223.734375 C 216.285156 227.332031 218.703125 245.1875 198.523438 255.714844 L 124.949219 294.109375 C 120.746094 296.3125 116.546875 296.65625 111.96875 295.835938 L 58.84375 286.3125 L 58.824219 286.332031 Z M 31.785156 219.554688 L 15.695312 219.605469 C 12.238281 219.605469 9.371094 222.496094 9.371094 226.003906 L 9.550781 278.960938 C 9.570312 282.417969 12.460938 285.285156 15.949219 285.273438 L 32.042969 285.214844 C 35.53125 285.214844 38.367188 282.289062 38.367188 278.816406 L 38.1875 225.878906 C 38.1875 222.425781 35.3125 219.554688 31.785156 219.554688 Z M 123.773438 221.316406 C 132.484375 225.429688 141.519531 232.914062 140.410156 242.605469 L 154.976562 237.042969 L 170.703125 229.28125 C 170.902344 229.175781 171.085938 229.085938 171.285156 228.996094 L 244.335938 192.964844 C 244.972656 192.65625 245.246094 191.855469 244.921875 191.21875 L 230.003906 160.980469 C 228.277344 163.21875 227.277344 165.539062 227.019531 167.976562 C 227 168.214844 226.96875 168.433594 226.890625 168.648438 C 223.710938 180.71875 217.476562 191.828125 205.65625 194.484375 C 205.457031 194.523438 205.238281 194.554688 205.023438 194.574219 L 205.039062 194.59375 C 204.949219 194.59375 204.875 194.59375 204.804688 194.613281 C 203.019531 212.539062 185.3125 224.28125 168.042969 218.027344 C 161.203125 215.550781 155.296875 210.496094 151.75 203.351562 C 144.785156 189.351562 149.9375 172.050781 164.019531 165.082031 C 170.550781 161.863281 177.746094 161.519531 184.292969 163.539062 C 187.382812 164.480469 190.328125 165.976562 192.984375 167.957031 C 193.855469 161.613281 195.453125 154.066406 197.78125 145.375 L 175.238281 156.503906 C 175.058594 156.613281 174.851562 156.703125 174.652344 156.792969 L 134.253906 176.71875 C 134.074219 176.828125 133.871094 176.917969 133.671875 177.007812 L 109.292969 189.027344 C 108.660156 189.351562 108.382812 190.152344 108.691406 190.789062 Z M 126.597656 72.152344 C 124.652344 70.625 124.328125 67.808594 125.851562 65.839844 C 127.378906 63.898438 130.195312 63.570312 132.144531 65.097656 C 137.050781 68.953125 145.601562 66.226562 145.601562 61.421875 C 145.601562 51.820312 121.144531 60.804688 121.144531 41.425781 C 121.144531 34.425781 126.65625 29.117188 133.304688 27.480469 L 133.304688 24.789062 C 133.304688 22.28125 135.269531 20.296875 137.921875 20.296875 L 137.921875 20.316406 C 140.449219 20.316406 142.453125 22.390625 142.394531 24.863281 L 142.34375 27.480469 C 145.8125 28.316406 148.992188 30.136719 151.269531 32.792969 C 152.867188 34.664062 152.648438 37.480469 150.777344 39.101562 C 148.902344 40.699219 146.070312 40.480469 144.464844 38.609375 C 140.265625 33.703125 130.117188 36.082031 130.117188 41.425781 C 130.117188 51.027344 154.574219 42.039062 154.574219 61.421875 C 154.574219 68.457031 149.011719 73.789062 142.316406 75.382812 L 142.277344 78.058594 C 142.277344 80.546875 140.257812 82.546875 137.789062 82.546875 C 135.300781 82.546875 133.300781 80.546875 133.300781 78.058594 L 133.300781 75.363281 C 130.828125 74.75 128.539062 73.660156 126.597656 72.152344 Z M 137.847656 9.011719 C 114.429688 9.011719 95.433594 27.988281 95.433594 51.421875 C 95.433594 74.859375 114.429688 93.835938 137.847656 93.835938 C 161.332031 93.835938 180.277344 74.800781 180.277344 51.421875 C 180.277344 27.996094 161.28125 9.011719 137.847656 9.011719 Z M 262.238281 102.53125 L 247.472656 72.519531 C 245.363281 73.570312 243.308594 74.648438 241.308594 75.679688 C 237.980469 77.441406 234.710938 79.226562 231.507812 81.042969 C 231.363281 81.132812 231.222656 81.222656 231.054688 81.316406 C 218.4375 87.609375 206.183594 94.097656 194.332031 100.789062 C 188.078125 104.316406 181.824219 107.953125 175.550781 111.71875 C 175.382812 111.84375 175.1875 111.953125 175.007812 112.0625 C 169.605469 115.300781 164.226562 118.625 158.824219 122.042969 C 154.917969 125.0625 152.425781 129.246094 151.046875 133.625 C 150.992188 133.882812 150.917969 134.132812 150.828125 134.371094 C 149.847656 137.828125 149.519531 141.386719 149.71875 144.566406 C 149.867188 147.074219 150.589844 151.1875 152.027344 152.730469 L 170.734375 143.644531 C 170.914062 143.535156 171.121094 143.445312 171.320312 143.355469 L 204.515625 127.230469 C 208.222656 125.339844 212.058594 128.816406 210.894531 132.523438 C 203.898438 154.808594 200.570312 170.992188 201.316406 180.117188 C 201.492188 182.117188 201.949219 185.972656 204.078125 185.664062 C 207.097656 184.902344 209.734375 183.097656 211.949219 180.285156 C 214.511719 177.0625 216.566406 172.535156 218.164062 166.6875 C 218.796875 161.503906 221.292969 156.777344 225.617188 152.488281 L 228.636719 149.832031 C 232.273438 146.921875 236.890625 144.253906 242.46875 141.796875 C 245.144531 140.089844 246.996094 138 248.050781 135.523438 C 249.179688 132.867188 249.46875 129.667969 248.921875 125.890625 L 248.941406 125.890625 C 248.871094 125.382812 248.871094 124.839844 248.992188 124.308594 C 250.890625 115.730469 255.585938 108.09375 262.238281 102.53125 Z M 265.871094 56.425781 L 255.347656 61.609375 C 253.910156 62.320312 253.316406 64.097656 254 65.515625 L 272.964844 104.039062 C 273.679688 105.457031 275.453125 106.074219 276.871094 105.367188 L 287.398438 100.183594 C 288.832031 99.472656 289.429688 97.710938 288.742188 96.28125 L 269.777344 57.753906 C 269.074219 56.335938 267.289062 55.714844 265.871094 56.425781 Z M 195.992188 191.085938 C 192.335938 186.851562 192.484375 180.449219 192.316406 179.996094 C 189.660156 176.121094 185.863281 173.394531 181.664062 172.085938 C 171.84375 169.054688 161.683594 174.414062 158.574219 184.214844 C 155.304688 194.523438 160.921875 205.9375 171.101562 209.613281 C 183.734375 214.191406 196.425781 204.648438 195.992188 191.085938 Z M 177.5 205.867188 C 175.03125 205.71875 173.160156 203.617188 173.300781 201.140625 C 173.449219 198.671875 175.550781 196.78125 178.027344 196.921875 C 179.9375 197.03125 181.207031 195.226562 181.046875 194.886719 C 180.867188 194.558594 179.429688 194.945312 177.996094 195.34375 C 172.992188 196.691406 167.996094 198.050781 164.558594 191.070312 C 162.742188 187.363281 163.738281 183.125 166.449219 180.144531 C 165.339844 177.816406 166.414062 175.160156 168.667969 174.125 C 170.871094 173.105469 173.453125 174.019531 174.542969 176.148438 C 175.347656 176.097656 176.160156 176.109375 176.941406 176.21875 C 179.398438 176.542969 181.125 178.800781 180.796875 181.253906 C 180.46875 183.707031 178.214844 185.414062 175.761719 185.085938 C 173.929688 184.832031 172.402344 186.703125 172.601562 187.109375 C 172.769531 187.453125 174.21875 187.070312 175.652344 186.671875 C 180.65625 185.304688 185.652344 183.964844 189.070312 190.925781 C 190.90625 194.667969 189.890625 198.921875 187.148438 201.921875 L 187.167969 201.941406 C 188.1875 204.140625 187.257812 206.757812 185.074219 207.828125 C 182.875 208.921875 180.21875 208.027344 179.109375 205.847656 C 178.554688 205.898438 178.027344 205.898438 177.5 205.867188 Z M 38.621094 97.042969 C 36.152344 97.042969 34.132812 95.042969 34.132812 92.554688 C 34.132812 90.078125 36.152344 88.0625 38.621094 88.0625 L 74.730469 88.0625 C 77.21875 88.0625 79.21875 90.085938 79.21875 92.554688 C 79.21875 95.042969 77.21875 97.042969 74.730469 97.042969 Z M 38.621094 137.179688 C 36.152344 137.179688 34.132812 135.175781 34.132812 132.707031 C 34.132812 130.21875 36.152344 128.21875 38.621094 128.21875 L 110.140625 128.21875 C 112.628906 128.21875 114.628906 130.21875 114.628906 132.707031 C 114.628906 135.183594 112.628906 137.179688 110.140625 137.179688 Z M 71.492188 168.359375 C 73.980469 168.359375 75.980469 170.363281 75.980469 172.851562 C 75.980469 175.320312 73.980469 177.339844 71.492188 177.339844 L 38.621094 177.339844 C 36.152344 177.339844 34.132812 175.320312 34.132812 172.851562 C 34.132812 170.363281 36.152344 168.359375 38.621094 168.359375 Z M 71.492188 168.359375 " fill-opacity="1" fill-rule="nonzero"/></svg>