<svg xmlns="http://www.w3.org/2000/svg" xmlns:xlink="http://www.w3.org/1999/xlink" width="400" zoomAndPan="magnify" viewBox="0 0 300 325.499995" height="434" preserveAspectRatio="xMidYMid meet" version="1.0"><defs><clipPath id="4d045ac6bc"><path d="M 0.230469 0 L 299.769531 0 L 299.769531 324.25 L 0.230469 324.25 Z M 0.230469 0 " clip-rule="nonzero"/></clipPath></defs><g clip-path="url(#4d045ac6bc)"><path fill="#165732" d="M 221.484375 90.761719 C 231.644531 90.761719 239.777344 85.265625 243.792969 75.671875 C 248.289062 64.941406 246.613281 51.25 239.972656 44.496094 C 235.101562 39.542969 229.230469 37.238281 221.5 37.238281 C 213.742188 37.238281 207.863281 39.542969 202.992188 44.496094 C 196.351562 51.242188 194.671875 64.941406 199.171875 75.664062 C 203.1875 85.257812 211.320312 90.761719 221.484375 90.761719 Z M 208.746094 50.160156 C 212.085938 46.761719 215.902344 45.308594 221.5 45.308594 C 227.070312 45.308594 230.878906 46.761719 234.222656 50.160156 C 238.601562 54.605469 239.574219 64.867188 236.355469 72.550781 C 234.417969 77.171875 230.265625 82.6875 221.484375 82.6875 C 212.707031 82.6875 208.550781 77.175781 206.613281 72.550781 C 203.394531 64.867188 204.371094 54.613281 208.746094 50.160156 Z M 37.085938 139.59375 C 39.3125 139.59375 41.121094 137.785156 41.121094 135.558594 L 41.121094 131.710938 C 41.121094 115.644531 53.164062 102.574219 67.964844 102.574219 L 88.382812 102.574219 C 88.53125 102.574219 88.671875 102.582031 88.820312 102.585938 C 84.507812 110.257812 82.246094 118.839844 82.246094 127.769531 L 82.246094 137.601562 C 82.246094 139.832031 84.058594 141.640625 86.285156 141.640625 C 88.511719 141.640625 90.320312 139.832031 90.320312 137.601562 L 90.320312 127.769531 C 90.320312 109.75 101.21875 93.855469 117.769531 87.226562 L 146.265625 140.125 C 146.972656 141.429688 148.339844 142.246094 149.816406 142.246094 C 151.296875 142.246094 152.671875 141.429688 153.371094 140.125 L 181.867188 87.226562 C 198.417969 93.847656 209.316406 109.746094 209.316406 127.769531 L 209.316406 137.601562 C 209.316406 139.832031 211.125 141.640625 213.351562 141.640625 C 215.578125 141.640625 217.390625 139.832031 217.390625 137.601562 L 217.390625 127.769531 C 217.390625 118.839844 215.128906 110.257812 210.816406 102.585938 C 210.964844 102.585938 211.113281 102.574219 211.253906 102.574219 L 231.671875 102.574219 C 246.472656 102.574219 258.515625 115.644531 258.515625 131.710938 L 258.515625 135.558594 C 258.515625 137.785156 260.324219 139.59375 262.550781 139.59375 C 264.777344 139.59375 266.585938 137.785156 266.585938 135.558594 L 266.585938 131.710938 C 266.585938 111.191406 250.925781 94.5 231.671875 94.5 L 211.253906 94.5 C 209.363281 94.5 207.472656 94.667969 205.617188 94.992188 C 199.25 87.261719 190.660156 81.414062 181.167969 78.414062 C 179.316406 77.828125 177.320312 78.644531 176.398438 80.351562 L 161.289062 108.398438 L 158.484375 98.390625 C 158.121094 97.089844 158.320312 95.921875 159.109375 94.824219 L 167.988281 82.40625 C 168.871094 81.171875 168.984375 79.558594 168.296875 78.214844 C 167.605469 76.867188 166.21875 76.019531 164.707031 76.019531 L 134.929688 76.019531 C 133.417969 76.019531 132.03125 76.867188 131.339844 78.214844 C 130.644531 79.558594 130.765625 81.179688 131.648438 82.40625 L 140.542969 94.84375 C 141.320312 95.933594 141.53125 97.097656 141.171875 98.390625 L 138.402344 108.5 L 123.238281 80.351562 C 122.316406 78.644531 120.320312 77.835938 118.46875 78.414062 C 108.976562 81.414062 100.386719 87.261719 94.019531 94.992188 C 92.164062 94.667969 90.273438 94.507812 88.382812 94.507812 L 67.964844 94.507812 C 48.710938 94.507812 33.050781 111.199219 33.050781 131.71875 L 33.050781 135.566406 C 33.050781 137.792969 34.859375 139.59375 37.085938 139.59375 Z M 147.105469 90.140625 L 142.773438 84.085938 L 156.875 84.085938 L 152.5625 90.113281 C 150.355469 93.195312 149.703125 96.910156 150.726562 100.554688 L 155.792969 118.617188 L 149.824219 129.691406 L 143.945312 118.78125 L 148.957031 100.507812 C 149.953125 96.890625 149.300781 93.207031 147.105469 90.140625 Z M 78.175781 90.761719 C 88.335938 90.761719 96.46875 85.265625 100.484375 75.671875 C 104.980469 64.941406 103.304688 51.25 96.664062 44.503906 C 91.792969 39.550781 85.921875 37.242188 78.191406 37.242188 C 70.433594 37.242188 64.554688 39.550781 59.683594 44.503906 C 53.042969 51.25 51.363281 64.945312 55.863281 75.671875 C 59.878906 85.257812 68.011719 90.761719 78.175781 90.761719 Z M 65.4375 50.160156 C 68.78125 46.761719 72.59375 45.308594 78.191406 45.308594 C 83.761719 45.308594 87.570312 46.761719 90.914062 50.160156 C 95.292969 54.605469 96.269531 64.867188 93.046875 72.550781 C 91.109375 77.171875 86.957031 82.6875 78.175781 82.6875 C 69.398438 82.6875 65.242188 77.175781 63.304688 72.550781 C 60.082031 64.867188 61.054688 54.613281 65.4375 50.160156 Z M 149.832031 73.976562 C 163.796875 73.976562 174.980469 66.40625 180.507812 53.207031 C 186.765625 38.273438 184.5 19.289062 175.347656 9.984375 C 168.648438 3.167969 160.546875 0 149.851562 0 C 139.128906 0 131.007812 3.175781 124.308594 9.984375 C 115.160156 19.289062 112.882812 38.273438 119.140625 53.207031 C 124.679688 66.40625 135.859375 73.976562 149.832031 73.976562 Z M 130.066406 15.648438 C 135.285156 10.339844 141.207031 8.074219 149.851562 8.074219 C 158.347656 8.074219 164.4375 10.40625 169.589844 15.648438 C 176.398438 22.570312 177.984375 38.339844 173.0625 50.09375 C 170.042969 57.304688 163.554688 65.902344 149.832031 65.902344 C 136.101562 65.902344 129.617188 57.304688 126.589844 50.085938 C 121.671875 38.339844 123.257812 22.5625 130.066406 15.648438 Z M 297.417969 216.269531 L 253.199219 144.464844 C 249.519531 138.484375 241.65625 136.613281 235.675781 140.292969 L 215.769531 152.539062 C 212.875 154.316406 210.851562 157.121094 210.0625 160.4375 C 209.277344 163.753906 209.820312 167.171875 211.597656 170.0625 L 211.777344 170.359375 C 210.777344 170.664062 209.753906 170.972656 208.746094 171.273438 C 205.953125 172.121094 203.058594 172.996094 200.730469 173.640625 C 199.164062 174.074219 197.832031 174.066406 196.277344 173.609375 L 176.628906 167.835938 C 160.886719 163.214844 141.316406 172.214844 129.609375 179.871094 C 121.496094 177.082031 113.34375 175.820312 104.746094 176.042969 L 87.886719 169.566406 L 88.226562 169 C 89.996094 166.109375 90.527344 162.683594 89.730469 159.375 C 88.929688 156.058594 86.890625 153.257812 83.996094 151.496094 L 64.050781 139.320312 C 58.054688 135.660156 50.199219 137.554688 46.539062 143.550781 L 2.5625 215.488281 C 0.792969 218.378906 0.261719 221.804688 1.0625 225.113281 C 1.859375 228.429688 3.898438 231.230469 6.792969 232.992188 L 26.738281 245.167969 C 28.804688 246.433594 31.097656 247.03125 33.359375 247.03125 C 37.65625 247.03125 41.855469 244.867188 44.25 240.9375 L 46.308594 237.574219 C 49.679688 243.089844 54.019531 248.722656 59.273438 254.398438 L 54.660156 262.398438 C 52.492188 266.152344 51.921875 270.539062 53.050781 274.742188 C 54.179688 278.949219 56.871094 282.460938 60.625 284.625 C 63.183594 286.097656 65.96875 286.792969 68.726562 286.792969 C 70.011719 286.792969 71.28125 286.628906 72.527344 286.335938 C 72.808594 291.683594 75.730469 296.722656 80.671875 299.566406 C 83.222656 301.035156 86.007812 301.726562 88.761719 301.726562 C 91.066406 301.726562 93.339844 301.230469 95.441406 300.292969 C 96.609375 304.390625 99.269531 307.808594 102.949219 309.925781 C 105.496094 311.394531 108.28125 312.085938 111.035156 312.085938 C 114.585938 312.085938 118.070312 310.921875 120.925781 308.761719 C 122.113281 311.992188 124.503906 314.648438 128.089844 316.707031 C 130.636719 318.175781 133.421875 318.867188 136.175781 318.867188 C 141.550781 318.867188 146.785156 316.203125 149.867188 311.433594 C 151.910156 312.839844 155.28125 315.261719 160.839844 319.414062 L 161.363281 319.804688 C 165.546875 322.917969 170.210938 324.269531 174.628906 324.269531 C 180.851562 324.269531 186.605469 321.59375 189.90625 317.367188 C 191.964844 314.738281 192.855469 311.851562 192.632812 308.992188 C 199.535156 309.167969 205.695312 305.628906 209.148438 300.746094 C 211.589844 297.285156 212.550781 293.527344 212.101562 289.992188 C 219.164062 290.109375 225.253906 286.554688 228.363281 281.785156 C 230.394531 278.671875 231.121094 275.28125 230.609375 272.011719 C 235.3125 271.695312 239.664062 269.28125 242.179688 265.9375 C 244.398438 262.988281 245.652344 258.628906 243.863281 254.097656 C 248.960938 252.742188 253.691406 249.804688 256.773438 245.808594 C 257.148438 245.324219 257.484375 244.832031 257.800781 244.335938 C 260.203125 246.648438 263.40625 247.898438 266.660156 247.898438 C 268.933594 247.898438 271.242188 247.292969 273.3125 246.015625 L 293.222656 233.773438 C 296.113281 231.996094 298.140625 229.191406 298.925781 225.875 C 299.738281 222.570312 299.195312 219.152344 297.417969 216.269531 Z M 37.363281 236.734375 C 36.015625 238.933594 33.136719 239.625 30.945312 238.28125 L 10.996094 226.101562 C 9.941406 225.457031 9.199219 224.433594 8.90625 223.21875 C 8.609375 222 8.804688 220.75 9.449219 219.691406 L 53.433594 147.742188 C 54.316406 146.300781 55.855469 145.507812 57.429688 145.507812 C 58.257812 145.507812 59.097656 145.730469 59.859375 146.195312 L 79.804688 158.371094 C 80.863281 159.015625 81.601562 160.039062 81.898438 161.257812 C 82.195312 162.476562 82 163.726562 81.351562 164.78125 Z M 64.65625 277.628906 C 62.773438 276.539062 61.414062 274.777344 60.847656 272.652344 C 60.277344 270.523438 60.566406 268.316406 61.648438 266.433594 L 78.855469 236.597656 C 80.378906 233.96875 83.140625 232.496094 85.988281 232.496094 C 87.375 232.496094 88.785156 232.84375 90.070312 233.589844 C 91.957031 234.679688 93.3125 236.441406 93.878906 238.570312 C 94.445312 240.679688 94.167969 242.882812 93.09375 244.757812 C 93.085938 244.765625 93.078125 244.777344 93.078125 244.785156 L 75.871094 274.621094 C 73.609375 278.535156 68.578125 279.890625 64.65625 277.628906 Z M 84.695312 292.578125 C 81.097656 290.503906 79.605469 285.921875 81.292969 282.128906 L 81.386719 281.914062 C 82.46875 279.480469 82.792969 278.792969 82.886719 278.597656 L 100.0625 248.816406 C 100.433594 248.230469 102.652344 244.90625 102.949219 244.484375 C 105.371094 241.09375 110.097656 240.0625 113.71875 242.140625 C 115.609375 243.222656 116.960938 244.992188 117.535156 247.121094 C 118.105469 249.238281 117.824219 251.445312 116.738281 253.328125 L 96.945312 287.71875 C 96.589844 288.339844 96.28125 288.976562 96.011719 289.628906 L 95.890625 289.5625 C 93.644531 293.480469 88.617188 294.832031 84.695312 292.578125 Z M 106.976562 302.9375 C 105.085938 301.855469 103.734375 300.085938 103.164062 297.960938 C 102.589844 295.832031 102.875 293.625 103.957031 291.742188 L 123.75 257.359375 C 123.75 257.351562 123.757812 257.351562 123.757812 257.34375 L 124.804688 255.527344 C 126.324219 252.890625 129.089844 251.417969 131.9375 251.417969 C 133.324219 251.417969 134.730469 251.769531 136.011719 252.507812 C 137.902344 253.589844 139.257812 255.359375 139.828125 257.488281 C 140.398438 259.613281 140.117188 261.820312 139.035156 263.703125 L 118.191406 299.917969 C 115.933594 303.839844 110.898438 305.199219 106.976562 302.9375 Z M 132.117188 309.71875 C 128.566406 307.679688 125.941406 304.410156 130.671875 294.40625 L 140.910156 276.621094 C 142.652344 273.59375 149.117188 271.582031 152.847656 273.71875 C 154.734375 274.804688 156.089844 276.574219 156.660156 278.691406 C 157.230469 280.8125 156.949219 283.023438 155.867188 284.90625 L 143.328125 306.691406 C 141.074219 310.621094 136.039062 311.980469 132.117188 309.71875 Z M 235.75 261.097656 C 233.742188 263.757812 229.25 265.101562 225.757812 262.863281 C 220.1875 259.296875 214.484375 255.769531 208.964844 252.367188 C 206.160156 250.636719 203.363281 248.902344 200.5625 247.160156 C 198.671875 245.984375 196.183594 246.5625 195 248.453125 C 193.824219 250.34375 194.402344 252.832031 196.292969 254.015625 C 199.097656 255.765625 201.910156 257.5 204.722656 259.234375 C 209.597656 262.25 214.625 265.351562 219.546875 268.484375 C 222.839844 271.230469 223.570312 274.398438 221.605469 277.40625 C 219.085938 281.28125 212.894531 283.628906 206.328125 280.46875 L 186.03125 266.234375 C 184.210938 264.953125 181.6875 265.398438 180.40625 267.222656 C 179.128906 269.042969 179.566406 271.566406 181.398438 272.84375 L 201.816406 287.160156 C 205.8125 290.539062 203.679688 294.542969 202.570312 296.117188 C 200.085938 299.628906 193.835938 303.292969 186.71875 299.101562 L 173.917969 289.773438 C 172.113281 288.460938 169.589844 288.855469 168.277344 290.652344 C 166.964844 292.457031 167.363281 294.980469 169.167969 296.289062 L 182.023438 305.65625 C 186.152344 309.105469 184.214844 311.589844 183.570312 312.410156 C 180.703125 316.070312 172.710938 318.1875 166.199219 313.34375 L 165.683594 312.953125 C 160.320312 308.953125 156.503906 306.1875 153.941406 304.453125 L 162.863281 288.949219 C 165.023438 285.195312 165.585938 280.8125 164.457031 276.605469 C 163.328125 272.402344 160.628906 268.898438 156.867188 266.738281 C 154.058594 265.121094 150.6875 264.539062 147.347656 264.820312 C 148.371094 261.800781 148.480469 258.542969 147.625 255.386719 C 146.488281 251.183594 143.796875 247.679688 140.035156 245.519531 C 135.347656 242.820312 129.863281 242.734375 125.269531 244.785156 C 124.097656 240.6875 121.441406 237.269531 117.753906 235.152344 C 112.472656 232.117188 106.210938 232.347656 101.300781 235.285156 C 100.007812 231.613281 97.5 228.550781 94.109375 226.601562 C 86.332031 222.121094 76.359375 224.804688 71.875 232.574219 L 63.511719 247.066406 C 58.238281 241.140625 54.078125 235.328125 51.121094 229.714844 L 83.605469 176.570312 L 102.605469 183.875 C 103.117188 184.070312 103.65625 184.164062 104.199219 184.144531 C 110.167969 183.929688 115.890625 184.519531 121.535156 185.921875 C 117.828125 189.167969 114.238281 193.285156 110.832031 198.21875 C 107.796875 202.617188 107.433594 208.082031 109.871094 212.84375 C 112.304688 217.601562 116.949219 220.511719 122.289062 220.628906 C 133.566406 220.875 139.09375 215.183594 144.96875 209.15625 C 145.566406 208.539062 146.179688 207.914062 146.8125 207.28125 C 152.335938 209.15625 157.757812 208.390625 162.992188 205 L 200.824219 231.351562 L 234.078125 254.050781 C 236.011719 255.785156 237.792969 258.386719 235.75 261.097656 Z M 250.402344 240.898438 C 247.683594 244.414062 242.5625 246.824219 237.886719 246.863281 L 205.40625 224.695312 L 165.246094 196.722656 C 163.765625 195.695312 161.78125 195.769531 160.378906 196.914062 C 156.027344 200.472656 152.105469 201.089844 147.664062 198.902344 C 146.144531 198.15625 144.316406 198.433594 143.089844 199.609375 C 141.683594 200.957031 140.414062 202.261719 139.183594 203.519531 C 133.785156 209.0625 130.234375 212.695312 122.472656 212.546875 C 120.078125 212.492188 118.152344 211.289062 117.0625 209.15625 C 115.972656 207.023438 116.121094 204.765625 117.480469 202.792969 C 121.199219 197.402344 125.09375 193.152344 129.050781 190.171875 C 129.070312 190.152344 129.097656 190.136719 129.117188 190.117188 C 141.605469 180.296875 161.691406 171.859375 174.347656 175.574219 L 193.992188 181.34375 C 196.972656 182.21875 199.882812 182.246094 202.878906 181.414062 C 205.292969 180.738281 208.234375 179.851562 211.070312 178.996094 C 212.78125 178.480469 214.523438 177.953125 216.152344 177.476562 L 251.925781 235.570312 C 252.445312 237.648438 251.402344 239.589844 250.402344 240.898438 Z M 291.101562 224.019531 C 290.8125 225.234375 290.074219 226.265625 289.015625 226.910156 L 269.109375 239.15625 C 266.917969 240.507812 264.039062 239.8125 262.683594 237.628906 L 218.464844 165.824219 C 217.820312 164.769531 217.617188 163.523438 217.90625 162.308594 C 218.195312 161.089844 218.9375 160.058594 219.992188 159.414062 L 239.898438 147.167969 C 242.09375 145.824219 244.972656 146.511719 246.324219 148.695312 L 290.542969 220.5 C 291.1875 221.554688 291.390625 222.800781 291.101562 224.019531 Z M 291.101562 224.019531 " fill-opacity="1" fill-rule="nonzero"/><path fill="#165732" d="M 221.484375 90.761719 C 231.644531 90.761719 239.777344 85.265625 243.792969 75.671875 C 248.289062 64.941406 246.613281 51.25 239.972656 44.496094 C 235.101562 39.542969 229.230469 37.238281 221.5 37.238281 C 213.742188 37.238281 207.863281 39.542969 202.992188 44.496094 C 196.351562 51.242188 194.671875 64.941406 199.171875 75.664062 C 203.1875 85.257812 211.320312 90.761719 221.484375 90.761719 Z M 208.746094 50.160156 C 212.085938 46.761719 215.902344 45.308594 221.5 45.308594 C 227.070312 45.308594 230.878906 46.761719 234.222656 50.160156 C 238.601562 54.605469 239.574219 64.867188 236.355469 72.550781 C 234.417969 77.171875 230.265625 82.6875 221.484375 82.6875 C 212.707031 82.6875 208.550781 77.175781 206.613281 72.550781 C 203.394531 64.867188 204.371094 54.613281 208.746094 50.160156 Z M 37.085938 139.59375 C 39.3125 139.59375 41.121094 137.785156 41.121094 135.558594 L 41.121094 131.710938 C 41.121094 115.644531 53.164062 102.574219 67.964844 102.574219 L 88.382812 102.574219 C 88.53125 102.574219 88.671875 102.582031 88.820312 102.585938 C 84.507812 110.257812 82.246094 118.839844 82.246094 127.769531 L 82.246094 137.601562 C 82.246094 139.832031 84.058594 141.640625 86.285156 141.640625 C 88.511719 141.640625 90.320312 139.832031 90.320312 137.601562 L 90.320312 127.769531 C 90.320312 109.75 101.21875 93.855469 117.769531 87.226562 L 146.265625 140.125 C 146.972656 141.429688 148.339844 142.246094 149.816406 142.246094 C 151.296875 142.246094 152.671875 141.429688 153.371094 140.125 L 181.867188 87.226562 C 198.417969 93.847656 209.316406 109.746094 209.316406 127.769531 L 209.316406 137.601562 C 209.316406 139.832031 211.125 141.640625 213.351562 141.640625 C 215.578125 141.640625 217.390625 139.832031 217.390625 137.601562 L 217.390625 127.769531 C 217.390625 118.839844 215.128906 110.257812 210.816406 102.585938 C 210.964844 102.585938 211.113281 102.574219 211.253906 102.574219 L 231.671875 102.574219 C 246.472656 102.574219 258.515625 115.644531 258.515625 131.710938 L 258.515625 135.558594 C 258.515625 137.785156 260.324219 139.59375 262.550781 139.59375 C 264.777344 139.59375 266.585938 137.785156 266.585938 135.558594 L 266.585938 131.710938 C 266.585938 111.191406 250.925781 94.5 231.671875 94.5 L 211.253906 94.5 C 209.363281 94.5 207.472656 94.667969 205.617188 94.992188 C 199.25 87.261719 190.660156 81.414062 181.167969 78.414062 C 179.316406 77.828125 177.320312 78.644531 176.398438 80.351562 L 161.289062 108.398438 L 158.484375 98.390625 C 158.121094 97.089844 158.320312 95.921875 159.109375 94.824219 L 167.988281 82.40625 C 168.871094 81.171875 168.984375 79.558594 168.296875 78.214844 C 167.605469 76.867188 166.21875 76.019531 164.707031 76.019531 L 134.929688 76.019531 C 133.417969 76.019531 132.03125 76.867188 131.339844 78.214844 C 130.644531 79.558594 130.765625 81.179688 131.648438 82.40625 L 140.542969 94.84375 C 141.320312 95.933594 141.53125 97.097656 141.171875 98.390625 L 138.402344 108.5 L 123.238281 80.351562 C 122.316406 78.644531 120.320312 77.835938 118.46875 78.414062 C 108.976562 81.414062 100.386719 87.261719 94.019531 94.992188 C 92.164062 94.667969 90.273438 94.507812 88.382812 94.507812 L 67.964844 94.507812 C 48.710938 94.507812 33.050781 111.199219 33.050781 131.71875 L 33.050781 135.566406 C 33.050781 137.792969 34.859375 139.59375 37.085938 139.59375 Z M 147.105469 90.140625 L 142.773438 84.085938 L 156.875 84.085938 L 152.5625 90.113281 C 150.355469 93.195312 149.703125 96.910156 150.726562 100.554688 L 155.792969 118.617188 L 149.824219 129.691406 L 143.945312 118.78125 L 148.957031 100.507812 C 149.953125 96.890625 149.300781 93.207031 147.105469 90.140625 Z M 78.175781 90.761719 C 88.335938 90.761719 96.46875 85.265625 100.484375 75.671875 C 104.980469 64.941406 103.304688 51.25 96.664062 44.503906 C 91.792969 39.550781 85.921875 37.242188 78.191406 37.242188 C 70.433594 37.242188 64.554688 39.550781 59.683594 44.503906 C 53.042969 51.25 51.363281 64.945312 55.863281 75.671875 C 59.878906 85.257812 68.011719 90.761719 78.175781 90.761719 Z M 65.4375 50.160156 C 68.78125 46.761719 72.59375 45.308594 78.191406 45.308594 C 83.761719 45.308594 87.570312 46.761719 90.914062 50.160156 C 95.292969 54.605469 96.269531 64.867188 93.046875 72.550781 C 91.109375 77.171875 86.957031 82.6875 78.175781 82.6875 C 69.398438 82.6875 65.242188 77.175781 63.304688 72.550781 C 60.082031 64.867188 61.054688 54.613281 65.4375 50.160156 Z M 149.832031 73.976562 C 163.796875 73.976562 174.980469 66.40625 180.507812 53.207031 C 186.765625 38.273438 184.5 19.289062 175.347656 9.984375 C 168.648438 3.167969 160.546875 0 149.851562 0 C 139.128906 0 131.007812 3.175781 124.308594 9.984375 C 115.160156 19.289062 112.882812 38.273438 119.140625 53.207031 C 124.679688 66.40625 135.859375 73.976562 149.832031 73.976562 Z M 130.066406 15.648438 C 135.285156 10.339844 141.207031 8.074219 149.851562 8.074219 C 158.347656 8.074219 164.4375 10.40625 169.589844 15.648438 C 176.398438 22.570312 177.984375 38.339844 173.0625 50.09375 C 170.042969 57.304688 163.554688 65.902344 149.832031 65.902344 C 136.101562 65.902344 129.617188 57.304688 126.589844 50.085938 C 121.671875 38.339844 123.257812 22.5625 130.066406 15.648438 Z M 297.417969 216.269531 L 253.199219 144.464844 C 249.519531 138.484375 241.65625 136.613281 235.675781 140.292969 L 215.769531 152.539062 C 212.875 154.316406 210.851562 157.121094 210.0625 160.4375 C 209.277344 163.753906 209.820312 167.171875 211.597656 170.0625 L 211.777344 170.359375 C 210.777344 170.664062 209.753906 170.972656 208.746094 171.273438 C 205.953125 172.121094 203.058594 172.996094 200.730469 173.640625 C 199.164062 174.074219 197.832031 174.066406 196.277344 173.609375 L 176.628906 167.835938 C 160.886719 163.214844 141.316406 172.214844 129.609375 179.871094 C 121.496094 177.082031 113.34375 175.820312 104.746094 176.042969 L 87.886719 169.566406 L 88.226562 169 C 89.996094 166.109375 90.527344 162.683594 89.730469 159.375 C 88.929688 156.058594 86.890625 153.257812 83.996094 151.496094 L 64.050781 139.320312 C 58.054688 135.660156 50.199219 137.554688 46.539062 143.550781 L 2.5625 215.488281 C 0.792969 218.378906 0.261719 221.804688 1.0625 225.113281 C 1.859375 228.429688 3.898438 231.230469 6.792969 232.992188 L 26.738281 245.167969 C 28.804688 246.433594 31.097656 247.03125 33.359375 247.03125 C 37.65625 247.03125 41.855469 244.867188 44.25 240.9375 L 46.308594 237.574219 C 49.679688 243.089844 54.019531 248.722656 59.273438 254.398438 L 54.660156 262.398438 C 52.492188 266.152344 51.921875 270.539062 53.050781 274.742188 C 54.179688 278.949219 56.871094 282.460938 60.625 284.625 C 63.183594 286.097656 65.96875 286.792969 68.726562 286.792969 C 70.011719 286.792969 71.28125 286.628906 72.527344 286.335938 C 72.808594 291.683594 75.730469 296.722656 80.671875 299.566406 C 83.222656 301.035156 86.007812 301.726562 88.761719 301.726562 C 91.066406 301.726562 93.339844 301.230469 95.441406 300.292969 C 96.609375 304.390625 99.269531 307.808594 102.949219 309.925781 C 105.496094 311.394531 108.28125 312.085938 111.035156 312.085938 C 114.585938 312.085938 118.070312 310.921875 120.925781 308.761719 C 122.113281 311.992188 124.503906 314.648438 128.089844 316.707031 C 130.636719 318.175781 133.421875 318.867188 136.175781 318.867188 C 141.550781 318.867188 146.785156 316.203125 149.867188 311.433594 C 151.910156 312.839844 155.28125 315.261719 160.839844 319.414062 L 161.363281 319.804688 C 165.546875 322.917969 170.210938 324.269531 174.628906 324.269531 C 180.851562 324.269531 186.605469 321.59375 189.90625 317.367188 C 191.964844 314.738281 192.855469 311.851562 192.632812 308.992188 C 199.535156 309.167969 205.695312 305.628906 209.148438 300.746094 C 211.589844 297.285156 212.550781 293.527344 212.101562 289.992188 C 219.164062 290.109375 225.253906 286.554688 228.363281 281.785156 C 230.394531 278.671875 231.121094 275.28125 230.609375 272.011719 C 235.3125 271.695312 239.664062 269.28125 242.179688 265.9375 C 244.398438 262.988281 245.652344 258.628906 243.863281 254.097656 C 248.960938 252.742188 253.691406 249.804688 256.773438 245.808594 C 257.148438 245.324219 257.484375 244.832031 257.800781 244.335938 C 260.203125 246.648438 263.40625 247.898438 266.660156 247.898438 C 268.933594 247.898438 271.242188 247.292969 273.3125 246.015625 L 293.222656 233.773438 C 296.113281 231.996094 298.140625 229.191406 298.925781 225.875 C 299.738281 222.570312 299.195312 219.152344 297.417969 216.269531 Z M 37.363281 236.734375 C 36.015625 238.933594 33.136719 239.625 30.945312 238.28125 L 10.996094 226.101562 C 9.941406 225.457031 9.199219 224.433594 8.90625 223.21875 C 8.609375 222 8.804688 220.75 9.449219 219.691406 L 53.433594 147.742188 C 54.316406 146.300781 55.855469 145.507812 57.429688 145.507812 C 58.257812 145.507812 59.097656 145.730469 59.859375 146.195312 L 79.804688 158.371094 C 80.863281 159.015625 81.601562 160.039062 81.898438 161.257812 C 82.195312 162.476562 82 163.726562 81.351562 164.78125 Z M 64.65625 277.628906 C 62.773438 276.539062 61.414062 274.777344 60.847656 272.652344 C 60.277344 270.523438 60.566406 268.316406 61.648438 266.433594 L 78.855469 236.597656 C 80.378906 233.96875 83.140625 232.496094 85.988281 232.496094 C 87.375 232.496094 88.785156 232.84375 90.070312 233.589844 C 91.957031 234.679688 93.3125 236.441406 93.878906 238.570312 C 94.445312 240.679688 94.167969 242.882812 93.09375 244.757812 C 93.085938 244.765625 93.078125 244.777344 93.078125 244.785156 L 75.871094 274.621094 C 73.609375 278.535156 68.578125 279.890625 64.65625 277.628906 Z M 84.695312 292.578125 C 81.097656 290.503906 79.605469 285.921875 81.292969 282.128906 L 81.386719 281.914062 C 82.46875 279.480469 82.792969 278.792969 82.886719 278.597656 L 100.0625 248.816406 C 100.433594 248.230469 102.652344 244.90625 102.949219 244.484375 C 105.371094 241.09375 110.097656 240.0625 113.71875 242.140625 C 115.609375 243.222656 116.960938 244.992188 117.535156 247.121094 C 118.105469 249.238281 117.824219 251.445312 116.738281 253.328125 L 96.945312 287.71875 C 96.589844 288.339844 96.28125 288.976562 96.011719 289.628906 L 95.890625 289.5625 C 93.644531 293.480469 88.617188 294.832031 84.695312 292.578125 Z M 106.976562 302.9375 C 105.085938 301.855469 103.734375 300.085938 103.164062 297.960938 C 102.589844 295.832031 102.875 293.625 103.957031 291.742188 L 123.75 257.359375 C 123.75 257.351562 123.757812 257.351562 123.757812 257.34375 L 124.804688 255.527344 C 126.324219 252.890625 129.089844 251.417969 131.9375 251.417969 C 133.324219 251.417969 134.730469 251.769531 136.011719 252.507812 C 137.902344 253.589844 139.257812 255.359375 139.828125 257.488281 C 140.398438 259.613281 140.117188 261.820312 139.035156 263.703125 L 118.191406 299.917969 C 115.933594 303.839844 110.898438 305.199219 106.976562 302.9375 Z M 132.117188 309.71875 C 128.566406 307.679688 125.941406 304.410156 130.671875 294.40625 L 140.910156 276.621094 C 142.652344 273.59375 149.117188 271.582031 152.847656 273.71875 C 154.734375 274.804688 156.089844 276.574219 156.660156 278.691406 C 157.230469 280.8125 156.949219 283.023438 155.867188 284.90625 L 143.328125 306.691406 C 141.074219 310.621094 136.039062 311.980469 132.117188 309.71875 Z M 235.75 261.097656 C 233.742188 263.757812 229.25 265.101562 225.757812 262.863281 C 220.1875 259.296875 214.484375 255.769531 208.964844 252.367188 C 206.160156 250.636719 203.363281 248.902344 200.5625 247.160156 C 198.671875 245.984375 196.183594 246.5625 195 248.453125 C 193.824219 250.34375 194.402344 252.832031 196.292969 254.015625 C 199.097656 255.765625 201.910156 257.5 204.722656 259.234375 C 209.597656 262.25 214.625 265.351562 219.546875 268.484375 C 222.839844 271.230469 223.570312 274.398438 221.605469 277.40625 C 219.085938 281.28125 212.894531 283.628906 206.328125 280.46875 L 186.03125 266.234375 C 184.210938 264.953125 181.6875 265.398438 180.40625 267.222656 C 179.128906 269.042969 179.566406 271.566406 181.398438 272.84375 L 201.816406 287.160156 C 205.8125 290.539062 203.679688 294.542969 202.570312 296.117188 C 200.085938 299.628906 193.835938 303.292969 186.71875 299.101562 L 173.917969 289.773438 C 172.113281 288.460938 169.589844 288.855469 168.277344 290.652344 C 166.964844 292.457031 167.363281 294.980469 169.167969 296.289062 L 182.023438 305.65625 C 186.152344 309.105469 184.214844 311.589844 183.570312 312.410156 C 180.703125 316.070312 172.710938 318.1875 166.199219 313.34375 L 165.683594 312.953125 C 160.320312 308.953125 156.503906 306.1875 153.941406 304.453125 L 162.863281 288.949219 C 165.023438 285.195312 165.585938 280.8125 164.457031 276.605469 C 163.328125 272.402344 160.628906 268.898438 156.867188 266.738281 C 154.058594 265.121094 150.6875 264.539062 147.347656 264.820312 C 148.371094 261.800781 148.480469 258.542969 147.625 255.386719 C 146.488281 251.183594 143.796875 247.679688 140.035156 245.519531 C 135.347656 242.820312 129.863281 242.734375 125.269531 244.785156 C 124.097656 240.6875 121.441406 237.269531 117.753906 235.152344 C 112.472656 232.117188 106.210938 232.347656 101.300781 235.285156 C 100.007812 231.613281 97.5 228.550781 94.109375 226.601562 C 86.332031 222.121094 76.359375 224.804688 71.875 232.574219 L 63.511719 247.066406 C 58.238281 241.140625 54.078125 235.328125 51.121094 229.714844 L 83.605469 176.570312 L 102.605469 183.875 C 103.117188 184.070312 103.65625 184.164062 104.199219 184.144531 C 110.167969 183.929688 115.890625 184.519531 121.535156 185.921875 C 117.828125 189.167969 114.238281 193.285156 110.832031 198.21875 C 107.796875 202.617188 107.433594 208.082031 109.871094 212.84375 C 112.304688 217.601562 116.949219 220.511719 122.289062 220.628906 C 133.566406 220.875 139.09375 215.183594 144.96875 209.15625 C 145.566406 208.539062 146.179688 207.914062 146.8125 207.28125 C 152.335938 209.15625 157.757812 208.390625 162.992188 205 L 200.824219 231.351562 L 234.078125 254.050781 C 236.011719 255.785156 237.792969 258.386719 235.75 261.097656 Z M 250.402344 240.898438 C 247.683594 244.414062 242.5625 246.824219 237.886719 246.863281 L 205.40625 224.695312 L 165.246094 196.722656 C 163.765625 195.695312 161.78125 195.769531 160.378906 196.914062 C 156.027344 200.472656 152.105469 201.089844 147.664062 198.902344 C 146.144531 198.15625 144.316406 198.433594 143.089844 199.609375 C 141.683594 200.957031 140.414062 202.261719 139.183594 203.519531 C 133.785156 209.0625 130.234375 212.695312 122.472656 212.546875 C 120.078125 212.492188 118.152344 211.289062 117.0625 209.15625 C 115.972656 207.023438 116.121094 204.765625 117.480469 202.792969 C 121.199219 197.402344 125.09375 193.152344 129.050781 190.171875 C 129.070312 190.152344 129.097656 190.136719 129.117188 190.117188 C 141.605469 180.296875 161.691406 171.859375 174.347656 175.574219 L 193.992188 181.34375 C 196.972656 182.21875 199.882812 182.246094 202.878906 181.414062 C 205.292969 180.738281 208.234375 179.851562 211.070312 178.996094 C 212.78125 178.480469 214.523438 177.953125 216.152344 177.476562 L 251.925781 235.570312 C 252.445312 237.648438 251.402344 239.589844 250.402344 240.898438 Z M 291.101562 224.019531 C 290.8125 225.234375 290.074219 226.265625 289.015625 226.910156 L 269.109375 239.15625 C 266.917969 240.507812 264.039062 239.8125 262.683594 237.628906 L 218.464844 165.824219 C 217.820312 164.769531 217.617188 163.523438 217.90625 162.308594 C 218.195312 161.089844 218.9375 160.058594 219.992188 159.414062 L 239.898438 147.167969 C 242.09375 145.824219 244.972656 146.511719 246.324219 148.695312 L 290.542969 220.5 C 291.1875 221.554688 291.390625 222.800781 291.101562 224.019531 Z M 291.101562 224.019531 " fill-opacity="1" fill-rule="nonzero"/></g></svg>